<?xml version="1.0"?>
<svg version="1.1" xmlns="http://www.w3.org/2000/svg" width="110px" height="36px" style="border: dashed 2px #aaa"><path fill="#273138" d="M13.1513671875,19.1181640625q-0.00244140625-0.009765625-0.00244140625-0.01953125q0-0.25390625,0.03173828125-0.52734375q0.0341796875-0.28564453125,0.106201171875-0.5712890625t0.1953125-0.517578125t0.30029296875-0.384521484375t0.428466796875-0.181884765625q0.0439453125-0.0048828125,0.09033203125-0.0048828125q0.12451171875,0,0.25634765625,0.0390625q0.18310546875,0.05126953125,0.2978515625,0.1806640625q0.12939453125,0.009765625,0.20751953125,0.1025390625t0.1171875,0.224609375t0.057373046875,0.272216796875t0.028076171875,0.245361328125q0.0244140625,0.2294921875,0.03173828125,0.498046875q0.00244140625,0.05126953125,0.00244140625,0.10498046875q0,0.21484375-0.0244140625,0.43212890625q-0.029296875,0.2734375-0.10498046875,0.531005859375t-0.2099609375,0.465087890625t-0.341796875,0.347900390625t-0.5029296875,0.169677734375q0.25390625,0.11474609375,0.496826171875,0.242919921875t0.501708984375,0.218505859375q0.0244140625,0.009765625,0.067138671875,0.0146484375t0.08544921875,0.01708984375t0.07568359375,0.029296875t0.037841796875,0.0537109375q0,0.029296875-0.030517578125,0.05126953125t-0.0732421875,0.040283203125t-0.084228515625,0.028076171875t-0.0634765625,0.0146484375l-0.0390625,0l-0.062255859375,0t-0.057373046875-0.0048828125t-0.029296875-0.0146484375q-0.12451171875-0.0146484375-0.29052734375-0.087890625t-0.338134765625-0.167236328125t-0.3369140625-0.186767578125t-0.294189453125-0.14892578125l-0.02685546875-0.068359375q0.009765625-0.01953125,0.035400390625-0.035400390625t0.050048828125-0.025634765625q-0.15380859375-0.048828125-0.25634765625-0.146484375t-0.166015625-0.223388671875t-0.09765625-0.2685546875t-0.048828125-0.286865234375q-0.01953125-0.1904296875-0.01953125-0.45166015625z M13.625,19.123046875q0.0048828125,0.20263671875,0.01953125,0.3466796875q0.0048828125,0.07568359375,0.028076171875,0.18798828125t0.059814453125,0.22705078125t0.089111328125,0.21240234375t0.118408203125,0.14404296875q0.0439453125,0.0244140625,0.086669921875,0.03662109375t0.084228515625,0.03662109375q0.06103515625-0.0048828125,0.1025390625-0.02685546875t0.09765625-0.03173828125l0.0048828125-0.0048828125q0.17578125-0.08056640625,0.30029296875-0.233154296875t0.206298828125-0.345458984375t0.126953125-0.4150390625t0.062255859375-0.4443359375q0.01220703125-0.17333984375,0.01220703125-0.3369140625l0-0.0927734375q-0.0048828125-0.20751953125-0.01953125-0.37353515625q-0.01953125-0.15380859375-0.0390625-0.306396484375t-0.07568359375-0.299072265625q-0.10009765625,0.0244140625-0.147705078125,0.0146484375t-0.086669921875-0.10498046875q-0.0146484375,0-0.032958984375-0.00732421875t-0.023193359375-0.02685546875q0-0.0146484375,0.009765625-0.0244140625q-0.10009765625-0.10009765625-0.2099609375-0.11474609375q-0.04638671875-0.00732421875-0.1025390625-0.00732421875q-0.07080078125,0-0.15625,0.01220703125l-0.0048828125,0q-0.12451171875,0.09033203125-0.21240234375,0.257568359375t-0.147705078125,0.379638671875t-0.09521484375,0.44677734375t-0.047607421875,0.4638671875q-0.009765625,0.1611328125-0.009765625,0.3125q0,0.05859375,0.00244140625,0.1171875z M14.18896484375,20.5146484375q0.01220703125-0.0048828125,0.03662109375-0.0048828125q-0.009765625,0-0.01708984375,0.00244140625t-0.01953125,0.00244140625z M15.836108398437,19.6357421875q0-0.13916015625,0.035400390625-0.286865234375t0.1123046875-0.26611328125t0.194091796875-0.19287109375t0.283203125-0.074462890625q0.12451171875,0,0.262451171875,0.042724609375t0.252685546875,0.1220703125t0.186767578125,0.194091796875t0.072021484375,0.25634765625q0,0.1708984375-0.062255859375,0.32470703125t-0.174560546875,0.274658203125t-0.262451171875,0.1904296875t-0.325927734375,0.069580078125q-0.14404296875,0-0.25146484375-0.052490234375t-0.179443359375-0.140380859375t-0.107421875-0.20751953125t-0.035400390625-0.25390625z M16.194995117187,19.630859375q0,0.0439453125,0.013427734375,0.12939453125t0.040283203125,0.167236328125t0.069580078125,0.1416015625t0.103759765625,0.054931640625q0.12939453125-0.0146484375,0.213623046875-0.084228515625t0.13671875-0.169677734375t0.0732421875-0.21728515625t0.020751953125-0.22216796875q0-0.13427734375-0.052490234375-0.224609375t-0.172119140625-0.146484375q0,0.0048828125,0.0048828125,0.0048828125t0.0048828125-0.0048828125l-0.06103515625-0.0146484375q-0.0244140625-0.009765625-0.059814453125-0.02197265625t-0.069580078125-0.0537109375q-0.09521484375,0.0341796875-0.147705078125,0.087890625t-0.079345703125,0.130615234375t-0.032958984375,0.184326171875t-0.006103515625,0.2587890625z M17.685888671875,18.87890625q0-0.1708984375,0.015869140625-0.4443359375t0.037841796875-0.56396484375t0.054931640625-0.550537109375t0.072021484375-0.399169921875q0.0146484375-0.06103515625,0.069580078125-0.0732421875t0.111083984375-0.01220703125q0.07568359375,0,0.130615234375,0.02685546875t0.054931640625,0.1171875q0,0.4443359375-0.054931640625,0.889892578125t-0.059814453125,0.889892578125q0.07568359375-0.11474609375,0.1953125-0.172119140625t0.25390625-0.057373046875q0.185546875,0,0.31982421875,0.07568359375t0.21728515625,0.1953125t0.123291015625,0.277099609375t0.040283203125,0.321044921875q0,0.09033203125-0.018310546875,0.225830078125t-0.054931640625,0.28564453125t-0.0927734375,0.2978515625t-0.133056640625,0.264892578125t-0.177001953125,0.189208984375t-0.2197265625,0.072021484375q-0.0244140625,0-0.064697265625-0.00732421875t-0.08056640625-0.02197265625t-0.067138671875-0.037841796875t-0.02685546875-0.057373046875q0-0.0390625,0.047607421875-0.054931640625t0.076904296875-0.015869140625q0.10986328125-0.048828125,0.1953125-0.203857421875t0.142822265625-0.340576171875t0.086669921875-0.367431640625t0.029296875-0.296630859375q0-0.06591796875-0.01953125-0.17578125t-0.059814453125-0.21728515625t-0.10986328125-0.185546875t-0.164794921875-0.078125q-0.11474609375,0-0.18310546875,0.118408203125t-0.107421875,0.27587890625t-0.052490234375,0.32470703125t-0.013427734375,0.262451171875q0,0.06103515625,0.020751953125,0.120849609375t0.047607421875,0.11962890625t0.047607421875,0.1220703125t0.020751953125,0.123291015625q0,0.029296875-0.025634765625,0.048828125t-0.059814453125,0.03173828125t-0.072021484375,0.015869140625t-0.057373046875,0.003662109375q-0.13916015625,0-0.19287109375-0.06591796875t-0.0927734375-0.185546875q-0.08544921875-0.27099609375-0.118408203125-0.550537109375t-0.032958984375-0.560302734375z M19.767602539063,19.53076171875q0-0.224609375,0.052490234375-0.440673828125t0.089111328125-0.430908203125q0.009765625-0.05615234375,0.076904296875-0.069580078125t0.113525390625-0.013427734375q0.08056640625,0,0.12939453125,0.0244140625q0.01953125,0.009765625,0.03662109375,0.02197265625t0.01708984375,0.03173828125q0,0.2099609375-0.050048828125,0.41015625t-0.050048828125,0.4248046875q0,0.07568359375,0.010986328125,0.142822265625t0.020751953125,0.133056640625l0.0146484375,0.07080078125q0,0.01953125,0.00244140625,0.0341796875t0.00732421875,0.0341796875q0,0.0439453125-0.062255859375,0.059814453125t-0.108642578125,0.015869140625q-0.07080078125,0-0.130615234375-0.028076171875t-0.093994140625-0.096435546875l-0.0341796875-0.07080078125q-0.029296875-0.05615234375-0.029296875-0.125732421875t-0.01220703125-0.128173828125z M19.923852539063,18.06103515625l0-0.04638671875q0-0.11474609375,0.057373046875-0.205078125t0.172119140625-0.09033203125q0.0146484375,0,0.028076171875,0.00244140625t0.028076171875,0.00244140625q0.029296875,0.0048828125,0.076904296875,0.023193359375t0.047607421875,0.057373046875l0,0.0048828125q-0.009765625,0.01953125-0.01220703125,0.040283203125t-0.01220703125,0.035400390625l0.0048828125-0.0048828125q-0.029296875,0.07568359375-0.047607421875,0.1220703125t-0.040283203125,0.074462890625t-0.054931640625,0.040283203125t-0.093994140625,0.01220703125q-0.009765625,0-0.0341796875-0.00244140625t-0.052490234375-0.009765625t-0.047607421875-0.01953125t-0.01953125-0.03662109375z M20.83369140625,20.4560546875q0-0.07080078125,0.006103515625-0.14892578125t0.010986328125-0.146484375l0.0146484375-0.3662109375q0.0244140625-0.439453125,0.059814453125-0.8642578125t0.059814453125-0.859375q0.0146484375-0.2392578125,0.02197265625-0.469970703125t0.02197265625-0.469970703125q-0.009765625-0.01953125-0.009765625-0.02685546875q0-0.0341796875,0.025634765625-0.0537109375t0.059814453125-0.032958984375t0.072021484375-0.018310546875t0.057373046875-0.0048828125l0.05615234375,0q0.07568359375,0.009765625,0.10986328125,0.047607421875t0.0439453125,0.09033203125t0.0048828125,0.1123046875t-0.0048828125,0.111083984375q0,0.35400390625-0.01708984375,0.721435546875t-0.0390625,0.7373046875t-0.040283203125,0.73974609375t-0.018310546875,0.731201171875l0,0.1708984375q0,0.11474609375-0.064697265625,0.1513671875t-0.179443359375,0.03662109375q-0.10009765625,0-0.17578125-0.0439453125t-0.07568359375-0.14404296875z M21.542114257812,22.200439453125q0.008544921875-0.035400390625,0.035400390625-0.054931640625t0.087890625-0.01953125q0.06591796875,0,0.12451171875,0.0390625t0.08544921875,0.09521484375q0.08544921875-0.13427734375,0.13427734375-0.3125t0.074462890625-0.37109375t0.030517578125-0.379638671875t0.0048828125-0.343017578125q0-0.49072265625,0.01220703125-0.96435546875t0.0390625-0.96435546875q0-0.0341796875,0.029296875-0.057373046875t0.067138671875-0.035400390625t0.078125-0.01708984375t0.069580078125-0.0048828125q0.05615234375,0,0.10986328125,0.0146484375t0.10009765625,0.0439453125l0.029296875,0.05615234375q-0.0048828125,0.34912109375-0.01953125,0.697021484375t-0.0146484375,0.692138671875q0,0.13427734375,0.0048828125,0.3515625q0.00244140625,0.07080078125,0.00244140625,0.146484375q0,0.1513671875-0.00732421875,0.3173828125q-0.009765625,0.2490234375-0.042724609375,0.501708984375t-0.107421875,0.457763671875t-0.20263671875,0.335693359375t-0.323486328125,0.130615234375q-0.08544921875,0-0.159912109375-0.020751953125t-0.133056640625-0.079345703125q-0.05615234375-0.048828125-0.08056640625-0.10498046875q-0.0146484375-0.0341796875-0.025634765625-0.074462890625t-0.00244140625-0.07568359375z M22.234252929688,18.29541015625l0-0.150146484375t0.01708984375-0.1318359375t0.064697265625-0.0927734375t0.137939453125-0.035400390625q0.0341796875,0,0.069580078125,0.0048828125t0.067138671875,0.01953125l0.0537109375,0.06103515625q0,0.07080078125,0.00244140625,0.15625l0,0.01953125q0,0.0732421875-0.0146484375,0.13671875q-0.01708984375,0.07568359375-0.062255859375,0.128173828125t-0.140380859375,0.052490234375q-0.07568359375,0-0.11474609375-0.02197265625t-0.07568359375-0.0927734375z M23.105029296875,19.6357421875q0-0.13916015625,0.035400390625-0.286865234375t0.1123046875-0.26611328125t0.194091796875-0.19287109375t0.283203125-0.074462890625q0.12451171875,0,0.262451171875,0.042724609375t0.252685546875,0.1220703125t0.186767578125,0.194091796875t0.072021484375,0.25634765625q0,0.1708984375-0.062255859375,0.32470703125t-0.174560546875,0.274658203125t-0.262451171875,0.1904296875t-0.325927734375,0.069580078125q-0.14404296875,0-0.25146484375-0.052490234375t-0.179443359375-0.140380859375t-0.107421875-0.20751953125t-0.035400390625-0.25390625z M23.463916015625,19.630859375q0,0.0439453125,0.013427734375,0.12939453125t0.040283203125,0.167236328125t0.069580078125,0.1416015625t0.103759765625,0.054931640625q0.12939453125-0.0146484375,0.213623046875-0.084228515625t0.13671875-0.169677734375t0.0732421875-0.21728515625t0.020751953125-0.22216796875q0-0.13427734375-0.052490234375-0.224609375t-0.172119140625-0.146484375q0,0.0048828125,0.0048828125,0.0048828125t0.0048828125-0.0048828125l-0.06103515625-0.0146484375q-0.0244140625-0.009765625-0.059814453125-0.02197265625t-0.069580078125-0.0537109375q-0.09521484375,0.0341796875-0.147705078125,0.087890625t-0.079345703125,0.130615234375t-0.032958984375,0.184326171875t-0.006103515625,0.2587890625z M24.957250976562,19.6015625l0-0.07080078125q0-0.087890625,0.0048828125-0.166015625q0.0048828125-0.10986328125,0.0048828125-0.1806640625q0-0.0390625,0.0048828125-0.089111328125t0.0244140625-0.079345703125q0.0244140625-0.0244140625,0.057373046875-0.050048828125t0.072021484375-0.025634765625q0.12451171875,0,0.1953125,0.028076171875t0.07568359375,0.115966796875l0.009765625,0.07568359375q0.0439453125-0.10498046875,0.1171875-0.260009765625t0.169677734375-0.29541015625t0.21728515625-0.2392578125t0.255126953125-0.098876953125q0.12451171875,0,0.205078125,0.1171875t0.128173828125,0.299072265625t0.067138671875,0.4052734375t0.02685546875,0.438232421875t0.009765625,0.391845703125t0.01708984375,0.267333984375q0.009765625,0.07568359375,0.032958984375,0.159912109375t0.023193359375,0.155029296875q0,0.01953125-0.028076171875,0.037841796875t-0.059814453125,0.030517578125t-0.064697265625,0.01953125t-0.047607421875,0.00732421875q-0.09521484375,0-0.135498046875-0.142822265625t-0.050048828125-0.357666015625t-0.009765625-0.465087890625t-0.01708984375-0.465087890625t-0.069580078125-0.357666015625t-0.167236328125-0.147705078125q-0.10498046875,0-0.21728515625,0.135498046875t-0.19287109375,0.360107421875q-0.078125,0.224609375-0.107421875,0.51025390625q-0.009765625,0.09033203125-0.009765625,0.1806640625q0,0.19775390625,0.04150390625,0.3955078125q0.0048828125,0.0341796875-0.028076171875,0.05126953125t-0.081787109375,0.02685546875t-0.098876953125,0.01220703125t-0.076904296875,0.00244140625q-0.09521484375,0-0.152587890625-0.067138671875t-0.089111328125-0.172119140625t-0.042724609375-0.235595703125t-0.013427734375-0.257568359375z M28.127026367187,20.4658203125q0.009765625-0.51025390625,0.042724609375-1.01806640625t0.057373046875-1.01806640625q0.0048828125-0.1953125,0.0048828125-0.355224609375t0.015869140625-0.277099609375t0.05859375-0.179443359375t0.142822265625-0.062255859375q0.08544921875,0,0.12939453125,0.0244140625t0.067138671875,0.062255859375t0.028076171875,0.08544921875t0.0048828125,0.096435546875q0,0.07080078125,0.0048828125,0.140380859375t0.0048828125,0.140380859375q0,0.51513671875-0.028076171875,1.02783203125t-0.028076171875,1.03271484375q0,0.07568359375,0.00244140625,0.152587890625t0.00244140625,0.157470703125q0,0.029296875-0.02685546875,0.048828125t-0.067138671875,0.032958984375t-0.08544921875,0.018310546875t-0.074462890625,0.0048828125q-0.0341796875,0-0.076904296875-0.0048828125t-0.0830078125-0.020751953125t-0.068359375-0.037841796875t-0.028076171875-0.05126953125z M28.263745117187,17.1552734375q0-0.0244140625,0.00732421875-0.054931640625t0.01708984375-0.054931640625q0.0048828125-0.029296875,0.0146484375-0.10009765625t0.035400390625-0.137939453125t0.07080078125-0.11962890625t0.128173828125-0.052490234375l0.04638671875,0q0.0390625,0.009765625,0.079345703125,0.0244140625t0.040283203125,0.07080078125q0,0.0244140625-0.00244140625,0.04638671875t-0.00732421875,0.048828125q-0.01953125,0.14404296875-0.037841796875,0.22705078125t-0.042724609375,0.125732421875t-0.062255859375,0.054931640625t-0.096435546875,0.01708984375q-0.01953125,0-0.052490234375-0.00244140625t-0.0634765625-0.01220703125t-0.052490234375-0.030517578125t-0.02197265625-0.050048828125z M29.202880859375,18.87890625q0-0.1708984375,0.015869140625-0.4443359375t0.037841796875-0.56396484375t0.054931640625-0.550537109375t0.072021484375-0.399169921875q0.0146484375-0.06103515625,0.069580078125-0.0732421875t0.111083984375-0.01220703125q0.07568359375,0,0.130615234375,0.02685546875t0.054931640625,0.1171875q0,0.4443359375-0.054931640625,0.889892578125t-0.059814453125,0.889892578125q0.07568359375-0.11474609375,0.1953125-0.172119140625t0.25390625-0.057373046875q0.185546875,0,0.31982421875,0.07568359375t0.21728515625,0.1953125t0.123291015625,0.277099609375t0.040283203125,0.321044921875q0,0.09033203125-0.018310546875,0.225830078125t-0.054931640625,0.28564453125t-0.0927734375,0.2978515625t-0.133056640625,0.264892578125t-0.177001953125,0.189208984375t-0.2197265625,0.072021484375q-0.0244140625,0-0.064697265625-0.00732421875t-0.08056640625-0.02197265625t-0.067138671875-0.037841796875t-0.02685546875-0.057373046875q0-0.0390625,0.047607421875-0.054931640625t0.076904296875-0.015869140625q0.10986328125-0.048828125,0.1953125-0.203857421875t0.142822265625-0.340576171875t0.086669921875-0.367431640625t0.029296875-0.296630859375q0-0.06591796875-0.01953125-0.17578125t-0.059814453125-0.21728515625t-0.10986328125-0.185546875t-0.164794921875-0.078125q-0.11474609375,0-0.18310546875,0.118408203125t-0.107421875,0.27587890625t-0.052490234375,0.32470703125t-0.013427734375,0.262451171875q0,0.06103515625,0.020751953125,0.120849609375t0.047607421875,0.11962890625t0.047607421875,0.1220703125t0.020751953125,0.123291015625q0,0.029296875-0.025634765625,0.048828125t-0.059814453125,0.03173828125t-0.072021484375,0.015869140625t-0.057373046875,0.003662109375q-0.13916015625,0-0.19287109375-0.06591796875t-0.0927734375-0.185546875q-0.08544921875-0.27099609375-0.118408203125-0.550537109375t-0.032958984375-0.560302734375z M31.284594726562,19.58935546875q0-0.166015625,0.045166015625-0.31982421875t0.135498046875-0.274658203125t0.225830078125-0.19287109375t0.313720703125-0.072021484375q0.10986328125,0,0.242919921875,0.032958984375t0.250244140625,0.09765625t0.1953125,0.164794921875t0.078125,0.2294921875q0,0.06103515625-0.020751953125,0.0927734375t-0.084228515625,0.03173828125l-0.02685546875-0.0048828125q0.07080078125,0.1904296875,0.1220703125,0.390625t0.10009765625,0.400390625q0.01953125,0.0390625,0.029296875,0.069580078125t0.009765625,0.059814453125q0,0.0390625-0.02197265625,0.064697265625t-0.057373046875,0.037841796875t-0.0732421875,0.01708984375t-0.067138671875,0.0048828125q-0.10498046875,0-0.157470703125-0.03662109375t-0.07568359375-0.10009765625t-0.028076171875-0.142822265625t-0.01953125-0.159912109375q-0.029296875,0.09521484375-0.076904296875,0.185546875t-0.1123046875,0.162353515625t-0.152587890625,0.11474609375t-0.19775390625,0.042724609375q-0.1611328125,0-0.27099609375-0.0927734375t-0.177001953125-0.228271484375t-0.09765625-0.289306640625t-0.030517578125-0.28564453125z M31.631274414062,19.55517578125q0,0.09033203125,0.01220703125,0.1904296875t0.040283203125,0.19775390625t0.072021484375,0.184326171875t0.10986328125,0.152587890625q0.11962890625-0.12939453125,0.177001953125-0.31494140625t0.1025390625-0.357666015625t0.1025390625-0.29541015625t0.177001953125-0.123291015625q0.07568359375,0,0.126953125,0.02685546875q-0.0244140625-0.06103515625-0.08056640625-0.118408203125t-0.125732421875-0.10498046875t-0.14404296875-0.078125t-0.140380859375-0.030517578125q-0.01953125,0-0.045166015625,0.006103515625t-0.040283203125,0.001220703125q-0.10009765625,0.029296875-0.164794921875,0.101318359375t-0.10498046875,0.169677734375t-0.057373046875,0.2001953125t-0.01708984375,0.19287109375z M33.40048828125,19.044921875q0-0.07080078125,0.040283203125-0.0927734375t0.101318359375-0.02197265625q0.10009765625,0,0.152587890625,0.037841796875t0.052490234375,0.133056640625q0,0.11474609375,0.01708984375,0.286865234375t0.050048828125,0.33447265625t0.078125,0.279541015625t0.093994140625,0.1171875q0.09033203125,0,0.159912109375-0.13916015625t0.1220703125-0.341796875t0.09033203125-0.435791015625t0.052490234375-0.416259765625q0.009765625-0.10009765625,0.047607421875-0.145263671875t0.137939453125-0.045166015625q0.11474609375,0,0.167236328125,0.09521484375t0.067138671875,0.234375q0.01220703125,0.11962890625,0.01220703125,0.2490234375l0,0.04150390625l0,0.09765625q0,0.0927734375,0.00244140625,0.166015625l0.07080078125,1.49658203125l0.009765625,0.2490234375q0.0048828125,0.0341796875,0.00732421875,0.064697265625t0.00244140625,0.064697265625q0,0.13916015625-0.059814453125,0.179443359375t-0.194091796875,0.040283203125q-0.029296875,0-0.074462890625-0.0048828125t-0.087890625-0.01953125t-0.0732421875-0.040283203125t-0.030517578125-0.064697265625l0.009765625-0.0244140625q0.01220703125-0.146484375,0.01220703125-0.3076171875l0-0.05126953125q-0.00244140625-0.1904296875-0.01220703125-0.3857421875t-0.02197265625-0.390625t-0.01220703125-0.3759765625q-0.0341796875,0.07568359375-0.079345703125,0.15625t-0.10498046875,0.145263671875t-0.135498046875,0.107421875t-0.1708984375,0.042724609375q-0.13916015625,0-0.2294921875-0.0732421875t-0.140380859375-0.1904296875t-0.072021484375-0.262451171875t-0.029296875-0.29052734375t-0.009765625-0.277099609375t-0.01953125-0.22216796875z M35.435815429687,19.56005859375q0-0.1904296875,0.040283203125-0.345458984375t0.128173828125-0.262451171875t0.230712890625-0.167236328125t0.347900390625-0.059814453125q0.11474609375,0,0.234375,0.030517578125t0.205078125,0.113525390625q0-0.048828125,0.009765625-0.201416015625t0.0244140625-0.355224609375t0.030517578125-0.4248046875t0.028076171875-0.41259765625t0.02197265625-0.31982421875t0.0146484375-0.146484375q0.0244140625-0.07080078125,0.09033203125-0.084228515625t0.12451171875-0.013427734375q0.15380859375,0,0.189208984375,0.048828125t0.035400390625,0.1953125q0,0.53466796875-0.047607421875,1.064453125t-0.047607421875,1.064453125q0,0.34423828125,0.013427734375,0.692138671875t0.096435546875,0.684814453125l0.02685546875,0.0244140625l0.0146484375,0.0439453125l-0.03662109375,0.05615234375q-0.0927734375,0.05859375-0.21484375,0.05859375l-0.009765625,0q-0.12451171875,0-0.2294921875-0.05859375q-0.0390625-0.0244140625-0.064697265625-0.145263671875t-0.040283203125-0.26611328125t-0.02197265625-0.279541015625t-0.01220703125-0.1904296875q-0.08544921875,0.1953125-0.233154296875,0.335693359375t-0.372314453125,0.140380859375q-0.17578125,0-0.2880859375-0.07568359375t-0.174560546875-0.19287109375t-0.087890625-0.262451171875t-0.025634765625-0.289306640625z M35.731225585937,19.57470703125q0,0.05615234375,0.013427734375,0.166015625t0.042724609375,0.2197265625t0.081787109375,0.1953125t0.137939453125,0.08544921875q0.11474609375-0.05615234375,0.20751953125-0.186767578125t0.159912109375-0.2880859375t0.10498046875-0.31494140625t0.037841796875-0.272216796875q0-0.14404296875-0.10498046875-0.2392578125t-0.25146484375-0.09521484375q-0.0439453125,0-0.089111328125,0.01708984375t-0.084228515625,0.0390625q-0.09033203125,0.08544921875-0.140380859375,0.155029296875t-0.07568359375,0.14404296875t-0.032958984375,0.164794921875t-0.00732421875,0.2099609375z M37.646923828125,19.37451171875q0-0.048828125,0.010986328125-0.12939453125t0.025634765625-0.159912109375t0.0341796875-0.147705078125t0.04638671875-0.087890625q0.01953125-0.01953125,0.067138671875-0.0390625t0.10009765625-0.028076171875t0.09765625,0.00732421875t0.054931640625,0.064697265625q-0.0341796875,0.0439453125-0.062255859375,0.150146484375t-0.042724609375,0.235595703125q-0.01220703125,0.10986328125-0.01220703125,0.22705078125l0,0.04150390625q0.00244140625,0.13671875,0.0244140625,0.25146484375t0.067138671875,0.189208984375t0.125732421875,0.074462890625q0.1708984375,0,0.3125-0.157470703125t0.25146484375-0.384521484375t0.19287109375-0.482177734375t0.1416015625-0.445556640625q0.0146484375-0.05615234375,0.069580078125-0.07568359375t0.118408203125-0.013427734375t0.113525390625,0.030517578125t0.059814453125,0.05859375q-0.048828125,0.41015625-0.076904296875,0.8203125t-0.028076171875,0.8251953125q0,0.08056640625,0.00732421875,0.147705078125t-0.00732421875,0.11474609375t-0.064697265625,0.07568359375t-0.159912109375,0.028076171875q-0.0244140625,0-0.062255859375-0.0048828125t-0.078125-0.015869140625t-0.068359375-0.032958984375t-0.028076171875-0.05126953125q0-0.1806640625,0.013427734375-0.37109375t0.037841796875-0.36865234375q-0.06591796875,0.09521484375-0.145263671875,0.189208984375t-0.174560546875,0.169677734375t-0.205078125,0.120849609375t-0.23681640625,0.045166015625q-0.1806640625,0-0.284423828125-0.08544921875t-0.15625-0.213623046875t-0.06591796875-0.279541015625t-0.013427734375-0.29296875z M39.943481445312,20.4560546875q0-0.07080078125,0.006103515625-0.14892578125t0.010986328125-0.146484375l0.0146484375-0.3662109375q0.0244140625-0.439453125,0.059814453125-0.8642578125t0.059814453125-0.859375q0.0146484375-0.2392578125,0.02197265625-0.469970703125t0.02197265625-0.469970703125q-0.009765625-0.01953125-0.009765625-0.02685546875q0-0.0341796875,0.025634765625-0.0537109375t0.059814453125-0.032958984375t0.072021484375-0.018310546875t0.057373046875-0.0048828125l0.05615234375,0q0.07568359375,0.009765625,0.10986328125,0.047607421875t0.0439453125,0.09033203125t0.0048828125,0.1123046875t-0.0048828125,0.111083984375q0,0.35400390625-0.01708984375,0.721435546875t-0.0390625,0.7373046875t-0.040283203125,0.73974609375t-0.018310546875,0.731201171875l0,0.1708984375q0,0.11474609375-0.064697265625,0.1513671875t-0.179443359375,0.03662109375q-0.10009765625,0-0.17578125-0.0439453125t-0.07568359375-0.14404296875z M41.06328125,20.4560546875q0-0.07080078125,0.006103515625-0.14892578125t0.010986328125-0.146484375l0.0146484375-0.3662109375q0.0244140625-0.439453125,0.059814453125-0.8642578125t0.059814453125-0.859375q0.0146484375-0.2392578125,0.02197265625-0.469970703125t0.02197265625-0.469970703125q-0.009765625-0.01953125-0.009765625-0.02685546875q0-0.0341796875,0.025634765625-0.0537109375t0.059814453125-0.032958984375t0.072021484375-0.018310546875t0.057373046875-0.0048828125l0.05615234375,0q0.07568359375,0.009765625,0.10986328125,0.047607421875t0.0439453125,0.09033203125t0.0048828125,0.1123046875t-0.0048828125,0.111083984375q0,0.35400390625-0.01708984375,0.721435546875t-0.0390625,0.7373046875t-0.040283203125,0.73974609375t-0.018310546875,0.731201171875l0,0.1708984375q0,0.11474609375-0.064697265625,0.1513671875t-0.179443359375,0.03662109375q-0.10009765625,0-0.17578125-0.0439453125t-0.07568359375-0.14404296875z M42.183081054687,19.58935546875q0-0.166015625,0.045166015625-0.31982421875t0.135498046875-0.274658203125t0.225830078125-0.19287109375t0.313720703125-0.072021484375q0.10986328125,0,0.242919921875,0.032958984375t0.250244140625,0.09765625t0.1953125,0.164794921875t0.078125,0.2294921875q0,0.06103515625-0.020751953125,0.0927734375t-0.084228515625,0.03173828125l-0.02685546875-0.0048828125q0.07080078125,0.1904296875,0.1220703125,0.390625t0.10009765625,0.400390625q0.01953125,0.0390625,0.029296875,0.069580078125t0.009765625,0.059814453125q0,0.0390625-0.02197265625,0.064697265625t-0.057373046875,0.037841796875t-0.0732421875,0.01708984375t-0.067138671875,0.0048828125q-0.10498046875,0-0.157470703125-0.03662109375t-0.07568359375-0.10009765625t-0.028076171875-0.142822265625t-0.01953125-0.159912109375q-0.029296875,0.09521484375-0.076904296875,0.185546875t-0.1123046875,0.162353515625t-0.152587890625,0.11474609375t-0.19775390625,0.042724609375q-0.1611328125,0-0.27099609375-0.0927734375t-0.177001953125-0.228271484375t-0.09765625-0.289306640625t-0.030517578125-0.28564453125z M42.529760742187,19.55517578125q0,0.09033203125,0.01220703125,0.1904296875t0.040283203125,0.19775390625t0.072021484375,0.184326171875t0.10986328125,0.152587890625q0.11962890625-0.12939453125,0.177001953125-0.31494140625t0.1025390625-0.357666015625t0.1025390625-0.29541015625t0.177001953125-0.123291015625q0.07568359375,0,0.126953125,0.02685546875q-0.0244140625-0.06103515625-0.08056640625-0.118408203125t-0.125732421875-0.10498046875t-0.14404296875-0.078125t-0.140380859375-0.030517578125q-0.01953125,0-0.045166015625,0.006103515625t-0.040283203125,0.001220703125q-0.10009765625,0.029296875-0.164794921875,0.101318359375t-0.10498046875,0.169677734375t-0.057373046875,0.2001953125t-0.01708984375,0.19287109375z M44.298974609375,19.044921875q0-0.07080078125,0.040283203125-0.0927734375t0.101318359375-0.02197265625q0.10009765625,0,0.152587890625,0.037841796875t0.052490234375,0.133056640625q0,0.11474609375,0.01708984375,0.286865234375t0.050048828125,0.33447265625t0.078125,0.279541015625t0.093994140625,0.1171875q0.09033203125,0,0.159912109375-0.13916015625t0.1220703125-0.341796875t0.09033203125-0.435791015625t0.052490234375-0.416259765625q0.009765625-0.10009765625,0.047607421875-0.145263671875t0.137939453125-0.045166015625q0.11474609375,0,0.167236328125,0.09521484375t0.067138671875,0.234375q0.01220703125,0.11962890625,0.01220703125,0.2490234375l0,0.04150390625l0,0.09765625q0,0.0927734375,0.00244140625,0.166015625l0.07080078125,1.49658203125l0.009765625,0.2490234375q0.0048828125,0.0341796875,0.00732421875,0.064697265625t0.00244140625,0.064697265625q0,0.13916015625-0.059814453125,0.179443359375t-0.194091796875,0.040283203125q-0.029296875,0-0.074462890625-0.0048828125t-0.087890625-0.01953125t-0.0732421875-0.040283203125t-0.030517578125-0.064697265625l0.009765625-0.0244140625q0.01220703125-0.146484375,0.01220703125-0.3076171875l0-0.05126953125q-0.00244140625-0.1904296875-0.01220703125-0.3857421875t-0.02197265625-0.390625t-0.01220703125-0.3759765625q-0.0341796875,0.07568359375-0.079345703125,0.15625t-0.10498046875,0.145263671875t-0.135498046875,0.107421875t-0.1708984375,0.042724609375q-0.13916015625,0-0.2294921875-0.0732421875t-0.140380859375-0.1904296875t-0.072021484375-0.262451171875t-0.029296875-0.29052734375t-0.009765625-0.277099609375t-0.01953125-0.22216796875z M46.334301757812,19.689453125q0-0.1708984375,0.037841796875-0.40283203125t0.128173828125-0.439453125t0.238037109375-0.352783203125t0.372314453125-0.145263671875q0.2099609375,0,0.31494140625,0.120849609375t0.10498046875,0.325927734375q0,0.13427734375-0.050048828125,0.294189453125t-0.142822265625,0.302734375t-0.2197265625,0.238037109375t-0.283203125,0.09521484375l-0.0634765625-0.0048828125q0,0.06591796875,0.01953125,0.177001953125t0.057373046875,0.220947265625t0.09765625,0.19287109375t0.145263671875,0.0830078125q0.12451171875,0,0.2392578125-0.10009765625t0.21728515625-0.22216796875t0.1904296875-0.22216796875t0.1611328125-0.10009765625q0.0390625,0,0.08056640625,0.01220703125t0.04638671875,0.068359375q0,0.0341796875-0.018310546875,0.05615234375t-0.032958984375,0.048828125q-0.07568359375,0.12939453125-0.164794921875,0.24658203125t-0.201416015625,0.21240234375t-0.245361328125,0.150146484375t-0.294189453125,0.054931640625q-0.2099609375,0-0.34912109375-0.074462890625t-0.224609375-0.2001953125t-0.123291015625-0.29052734375t-0.037841796875-0.345458984375z M46.771313476562,19.50390625l0.068359375,0.06103515625q0.048828125,0.0439453125,0.09765625,0.01953125t0.087890625-0.089111328125t0.072021484375-0.159912109375t0.05859375-0.1953125t0.037841796875-0.1953125t0.01220703125-0.15869140625l0-0.0830078125t-0.00732421875-0.087890625t-0.025634765625-0.069580078125t-0.057373046875-0.035400390625q-0.01220703125-0.00244140625-0.02197265625-0.00244140625q-0.0830078125,0-0.1416015625,0.10498046875q-0.0634765625,0.1171875-0.1025390625,0.284423828125t-0.05615234375,0.343017578125t-0.02197265625,0.263671875z M48.2744140625,18.68115234375q0-0.01953125,0.023193359375-0.035400390625t0.052490234375-0.023193359375t0.059814453125-0.009765625t0.045166015625-0.00244140625q0.10986328125,0,0.18798828125,0.09765625t0.135498046875,0.250244140625t0.09765625,0.3369140625t0.076904296875,0.367431640625t0.072021484375,0.335693359375t0.079345703125,0.235595703125q0.07568359375-0.14892578125,0.137939453125-0.35888671875t0.11474609375-0.4345703125t0.0927734375-0.443115234375t0.064697265625-0.382080078125q0.009765625-0.0439453125,0.06103515625-0.054931640625t0.08544921875-0.010986328125q0.05615234375,0,0.09765625,0.015869140625t0.04150390625,0.069580078125q0,0.09033203125-0.02197265625,0.245361328125t-0.059814453125,0.347900390625t-0.087890625,0.3955078125t-0.107421875,0.384521484375t-0.11962890625,0.322265625t-0.123291015625,0.198974609375q-0.029296875,0.0341796875-0.091552734375,0.047607421875t-0.103759765625,0.013427734375q-0.14404296875,0-0.2392578125-0.07568359375l0,0.0048828125q-0.14892578125-0.13916015625-0.2197265625-0.33935546875t-0.1025390625-0.41748046875t-0.057373046875-0.43212890625t-0.086669921875-0.390625q-0.009765625-0.01953125-0.0244140625-0.057373046875t-0.0341796875-0.07568359375t-0.032958984375-0.072021484375t-0.013427734375-0.0537109375z"/><path fill="#" d="M62.20849609375,16.74560546875q0-0.2392578125,0.08203125-0.3212890625t0.22900390625-0.08203125q0.041015625,0,0.087158203125,0.0068359375t0.087158203125,0.0205078125q0.22900390625-0.04443359375,0.43408203125-0.04443359375q0.33154296875,0,0.6015625,0.1162109375q0.43408203125,0.1845703125,0.7177734375,0.546875t0.4169921875,0.85107421875t0.13330078125,1.00146484375q0,0.287109375-0.039306640625,0.59814453125t-0.152099609375,0.57763671875q-0.09912109375,0.2392578125-0.2734375,0.500732421875t-0.394775390625,0.49560546875t-0.47509765625,0.41015625t-0.514404296875,0.237548828125l0,0.02734375q0,0.068359375-0.035888671875,0.111083984375t-0.087158203125,0.06494140625t-0.117919921875,0.029052734375t-0.124755859375,0.0068359375q-0.0341796875,0-0.097412109375-0.0068359375t-0.123046875-0.025634765625t-0.100830078125-0.049560546875t-0.041015625-0.08544921875q0-0.6220703125-0.032470703125-1.245849609375t-0.073486328125-1.24755859375t-0.073486328125-1.245849609375t-0.032470703125-1.24755859375z M62.8544921875,16.5712890625q0.0341796875,0.328125,0.04443359375,0.654541015625t0.03076171875,0.654541015625q0.0546875,0.84765625,0.12646484375,1.686767578125t0.08544921875,1.686767578125q0.328125-0.21533203125,0.562255859375-0.4921875t0.384521484375-0.6015625t0.220458984375-0.681884765625t0.070068359375-0.736572265625q0-0.2734375-0.0478515625-0.6015625t-0.1640625-0.63232421875t-0.312744140625-0.55029296875t-0.490478515625-0.35205078125q-0.0615234375-0.0205078125-0.148681640625-0.0341796875t-0.278564453125-0.013671875q-0.0205078125,0-0.041015625,0.0068359375t-0.041015625,0.0068359375z M65.693696289063,20.365234375q0-0.2392578125,0.052978515625-0.56396484375t0.179443359375-0.615234375t0.333251953125-0.493896484375t0.521240234375-0.203369140625q0.2939453125,0,0.44091796875,0.169189453125t0.14697265625,0.456298828125q0,0.18798828125-0.070068359375,0.411865234375t-0.199951171875,0.423828125t-0.3076171875,0.333251953125t-0.396484375,0.13330078125l-0.0888671875-0.0068359375q0,0.09228515625,0.02734375,0.247802734375t0.080322265625,0.309326171875t0.13671875,0.27001953125t0.203369140625,0.1162109375q0.17431640625,0,0.3349609375-0.14013671875t0.30419921875-0.31103515625t0.2666015625-0.31103515625t0.2255859375-0.14013671875q0.0546875,0,0.11279296875,0.01708984375t0.06494140625,0.095703125q0,0.0478515625-0.025634765625,0.07861328125t-0.046142578125,0.068359375q-0.10595703125,0.18115234375-0.230712890625,0.34521484375t-0.281982421875,0.29736328125t-0.343505859375,0.210205078125t-0.411865234375,0.076904296875q-0.2939453125,0-0.48876953125-0.104248046875t-0.314453125-0.2802734375t-0.172607421875-0.40673828125t-0.052978515625-0.483642578125z M66.305512695313,20.10546875l0.095703125,0.08544921875q0.068359375,0.0615234375,0.13671875,0.02734375t0.123046875-0.124755859375t0.100830078125-0.223876953125t0.08203125-0.2734375t0.052978515625-0.2734375t0.01708984375-0.22216796875l0-0.1162109375t-0.01025390625-0.123046875t-0.035888671875-0.097412109375t-0.080322265625-0.049560546875q-0.01708984375-0.00341796875-0.03076171875-0.00341796875q-0.1162109375,0-0.1982421875,0.14697265625q-0.0888671875,0.1640625-0.1435546875,0.398193359375t-0.07861328125,0.480224609375t-0.03076171875,0.369140625z M68.409853515625,18.95361328125q0-0.02734375,0.032470703125-0.049560546875t0.073486328125-0.032470703125t0.083740234375-0.013671875t0.063232421875-0.00341796875q0.15380859375,0,0.26318359375,0.13671875t0.189697265625,0.350341796875t0.13671875,0.4716796875t0.107666015625,0.514404296875t0.100830078125,0.469970703125t0.111083984375,0.329833984375q0.10595703125-0.20849609375,0.193115234375-0.50244140625t0.16064453125-0.6083984375t0.1298828125-0.620361328125t0.090576171875-0.534912109375q0.013671875-0.0615234375,0.08544921875-0.076904296875t0.11962890625-0.015380859375q0.07861328125,0,0.13671875,0.022216796875t0.05810546875,0.097412109375q0,0.12646484375-0.03076171875,0.343505859375t-0.083740234375,0.487060546875t-0.123046875,0.5537109375t-0.150390625,0.538330078125t-0.16748046875,0.451171875t-0.172607421875,0.278564453125q-0.041015625,0.0478515625-0.128173828125,0.066650390625t-0.145263671875,0.018798828125q-0.20166015625,0-0.3349609375-0.10595703125l0,0.0068359375q-0.20849609375-0.19482421875-0.3076171875-0.47509765625t-0.1435546875-0.58447265625t-0.080322265625-0.60498046875t-0.121337890625-0.546875q-0.013671875-0.02734375-0.0341796875-0.080322265625t-0.0478515625-0.10595703125t-0.046142578125-0.100830078125t-0.018798828125-0.0751953125z M71.037143554688,20.2900390625q0-0.19482421875,0.049560546875-0.401611328125t0.1572265625-0.37255859375t0.271728515625-0.27001953125t0.396484375-0.104248046875q0.17431640625,0,0.367431640625,0.059814453125t0.353759765625,0.1708984375t0.261474609375,0.271728515625t0.100830078125,0.35888671875q0,0.2392578125-0.087158203125,0.45458984375t-0.244384765625,0.384521484375t-0.367431640625,0.2666015625t-0.456298828125,0.097412109375q-0.20166015625,0-0.35205078125-0.073486328125t-0.251220703125-0.196533203125t-0.150390625-0.29052734375t-0.049560546875-0.35546875z M71.539584960938,20.283203125q0,0.0615234375,0.018798828125,0.18115234375t0.056396484375,0.234130859375t0.097412109375,0.1982421875t0.145263671875,0.076904296875q0.18115234375-0.0205078125,0.299072265625-0.117919921875t0.19140625-0.237548828125t0.1025390625-0.30419921875t0.029052734375-0.31103515625q0-0.18798828125-0.073486328125-0.314453125t-0.240966796875-0.205078125q0,0.0068359375,0.0068359375,0.0068359375t0.0068359375-0.0068359375l-0.08544921875-0.0205078125q-0.0341796875-0.013671875-0.083740234375-0.03076171875t-0.097412109375-0.0751953125q-0.13330078125,0.0478515625-0.206787109375,0.123046875t-0.111083984375,0.182861328125t-0.046142578125,0.258056640625t-0.008544921875,0.3623046875z M73.6268359375,21.4384765625q0-0.09912109375,0.008544921875-0.20849609375t0.015380859375-0.205078125l0.0205078125-0.5126953125q0.0341796875-0.615234375,0.083740234375-1.2099609375t0.083740234375-1.203125q0.0205078125-0.3349609375,0.03076171875-0.657958984375t0.03076171875-0.657958984375q-0.013671875-0.02734375-0.013671875-0.03759765625q0-0.0478515625,0.035888671875-0.0751953125t0.083740234375-0.046142578125t0.100830078125-0.025634765625t0.080322265625-0.0068359375l0.07861328125,0q0.10595703125,0.013671875,0.15380859375,0.066650390625t0.0615234375,0.12646484375t0.0068359375,0.1572265625t-0.0068359375,0.155517578125q0,0.49560546875-0.02392578125,1.010009765625t-0.0546875,1.0322265625t-0.056396484375,1.03564453125t-0.025634765625,1.023681640625l0,0.2392578125q0,0.16064453125-0.090576171875,0.2119140625t-0.251220703125,0.05126953125q-0.14013671875,0-0.24609375-0.0615234375t-0.10595703125-0.20166015625z M75.126196289063,20.2900390625q0-0.19482421875,0.049560546875-0.401611328125t0.1572265625-0.37255859375t0.271728515625-0.27001953125t0.396484375-0.104248046875q0.17431640625,0,0.367431640625,0.059814453125t0.353759765625,0.1708984375t0.261474609375,0.271728515625t0.100830078125,0.35888671875q0,0.2392578125-0.087158203125,0.45458984375t-0.244384765625,0.384521484375t-0.367431640625,0.2666015625t-0.456298828125,0.097412109375q-0.20166015625,0-0.35205078125-0.073486328125t-0.251220703125-0.196533203125t-0.150390625-0.29052734375t-0.049560546875-0.35546875z M75.628637695313,20.283203125q0,0.0615234375,0.018798828125,0.18115234375t0.056396484375,0.234130859375t0.097412109375,0.1982421875t0.145263671875,0.076904296875q0.18115234375-0.0205078125,0.299072265625-0.117919921875t0.19140625-0.237548828125t0.1025390625-0.30419921875t0.029052734375-0.31103515625q0-0.18798828125-0.073486328125-0.314453125t-0.240966796875-0.205078125q0,0.0068359375,0.0068359375,0.0068359375t0.0068359375-0.0068359375l-0.08544921875-0.0205078125q-0.0341796875-0.013671875-0.083740234375-0.03076171875t-0.097412109375-0.0751953125q-0.13330078125,0.0478515625-0.206787109375,0.123046875t-0.111083984375,0.182861328125t-0.046142578125,0.258056640625t-0.008544921875,0.3623046875z M77.715888671875,18.98779296875q0-0.16064453125,0.063232421875-0.237548828125t0.230712890625-0.076904296875q0.09912109375,0,0.186279296875,0.041015625t0.087158203125,0.17431640625q0.013671875,0.19482421875,0.013671875,0.408447265625t0.03759765625,0.405029296875q0.08544921875-0.14013671875,0.193115234375-0.2802734375t0.237548828125-0.24951171875t0.28369140625-0.176025390625t0.3349609375-0.066650390625q0.24609375,0,0.4169921875,0.1025390625t0.281982421875,0.2666015625t0.16064453125,0.370849609375t0.049560546875,0.415283203125q0,0.3212890625-0.097412109375,0.524658203125t-0.258056640625,0.319580078125t-0.364013671875,0.1572265625t-0.408447265625,0.041015625q-0.18115234375,0-0.33837890625-0.070068359375t-0.21875-0.264892578125q0-0.0546875,0.080322265625-0.068359375t0.114501953125-0.013671875q0.11279296875,0,0.16748046875,0.0615234375q0.041015625,0.0478515625,0.090576171875,0.097412109375t0.104248046875,0.049560546875q0.10595703125,0,0.22216796875-0.059814453125t0.213623046875-0.1572265625t0.1640625-0.230712890625t0.066650390625-0.2734375q0-0.11962890625-0.0205078125-0.29736328125t-0.070068359375-0.341796875t-0.13671875-0.28369140625t-0.220458984375-0.11962890625q-0.20166015625,0-0.364013671875,0.1845703125t-0.27001953125,0.4443359375t-0.16748046875,0.5400390625t-0.059814453125,0.46826171875t0.02392578125,0.47509765625t0.049560546875,0.596435546875t0.049560546875,0.596435546875t0.02392578125,0.47509765625q0,0.0478515625-0.039306640625,0.076904296875t-0.093994140625,0.046142578125t-0.111083984375,0.0205078125t-0.083740234375,0.00341796875q-0.09228515625,0-0.193115234375-0.0205078125t-0.138427734375-0.12646484375q-0.0478515625-0.16748046875-0.0888671875-0.476806640625t-0.073486328125-0.68359375t-0.056396484375-0.7861328125t-0.041015625-0.794677734375t-0.025634765625-0.70068359375t-0.008544921875-0.505859375z M80.992592773438,20.365234375q0-0.2392578125,0.052978515625-0.56396484375t0.179443359375-0.615234375t0.333251953125-0.493896484375t0.521240234375-0.203369140625q0.2939453125,0,0.44091796875,0.169189453125t0.14697265625,0.456298828125q0,0.18798828125-0.070068359375,0.411865234375t-0.199951171875,0.423828125t-0.3076171875,0.333251953125t-0.396484375,0.13330078125l-0.0888671875-0.0068359375q0,0.09228515625,0.02734375,0.247802734375t0.080322265625,0.309326171875t0.13671875,0.27001953125t0.203369140625,0.1162109375q0.17431640625,0,0.3349609375-0.14013671875t0.30419921875-0.31103515625t0.2666015625-0.31103515625t0.2255859375-0.14013671875q0.0546875,0,0.11279296875,0.01708984375t0.06494140625,0.095703125q0,0.0478515625-0.025634765625,0.07861328125t-0.046142578125,0.068359375q-0.10595703125,0.18115234375-0.230712890625,0.34521484375t-0.281982421875,0.29736328125t-0.343505859375,0.210205078125t-0.411865234375,0.076904296875q-0.2939453125,0-0.48876953125-0.104248046875t-0.314453125-0.2802734375t-0.172607421875-0.40673828125t-0.052978515625-0.483642578125z M81.604409179688,20.10546875l0.095703125,0.08544921875q0.068359375,0.0615234375,0.13671875,0.02734375t0.123046875-0.124755859375t0.100830078125-0.223876953125t0.08203125-0.2734375t0.052978515625-0.2734375t0.01708984375-0.22216796875l0-0.1162109375t-0.01025390625-0.123046875t-0.035888671875-0.097412109375t-0.080322265625-0.049560546875q-0.01708984375-0.00341796875-0.03076171875-0.00341796875q-0.1162109375,0-0.1982421875,0.14697265625q-0.0888671875,0.1640625-0.1435546875,0.398193359375t-0.07861328125,0.480224609375t-0.03076171875,0.369140625z M83.84888671875,19.26806640625q0-0.14013671875,0.049560546875-0.23583984375t0.210205078125-0.095703125q0.0615234375,0,0.15380859375,0.018798828125t0.10595703125,0.093994140625q0.0341796875,0.20166015625,0.03759765625,0.4375t0.02392578125,0.4443359375q0.07861328125-0.15380859375,0.20166015625-0.33154296875t0.2802734375-0.328125t0.341796875-0.24951171875t0.3759765625-0.09912109375q0.013671875,0,0.05126953125,0.01025390625t0.070068359375,0.029052734375t0.039306640625,0.042724609375t-0.03759765625,0.04443359375q-0.013671875,0.041015625-0.05810546875,0.049560546875t-0.07861328125,0.008544921875q-0.0205078125,0-0.06494140625-0.01708984375q-0.2529296875,0.13330078125-0.4306640625,0.3623046875t-0.29052734375,0.507568359375t-0.1640625,0.587890625t-0.05126953125,0.603271484375q0,0.14697265625-0.066650390625,0.177734375t-0.213623046875,0.03076171875q-0.07861328125,0-0.165771484375-0.01708984375t-0.121337890625-0.109375q-0.0615234375-0.19482421875-0.100830078125-0.44775390625t-0.059814453125-0.521240234375t-0.029052734375-0.528076171875t-0.008544921875-0.46826171875z"/></svg>
