<svg xmlns="http://www.w3.org/2000/svg" xmlns:xlink="http://www.w3.org/1999/xlink" width="539" height="366" viewBox="0 0 539 366">
  <defs>
    <clipPath id="clip-path">
      <rect id="Rectangle_21141" data-name="Rectangle 21141" width="539" height="366" transform="translate(591 263)" fill="#fff" stroke="#707070" stroke-width="1"/>
    </clipPath>
    <clipPath id="clip-path-2">
      <rect id="Rectangle_20990" data-name="Rectangle 20990" width="27.041" height="85.353" fill="none"/>
    </clipPath>
    <clipPath id="clip-path-3">
      <rect id="Rectangle_20991" data-name="Rectangle 20991" width="32.33" height="70.4" fill="none"/>
    </clipPath>
    <clipPath id="clip-path-4">
      <rect id="Rectangle_20992" data-name="Rectangle 20992" width="28.016" height="72.097" fill="none"/>
    </clipPath>
    <filter id="Rectangle_20981" x="115" y="5" width="326" height="365" filterUnits="userSpaceOnUse">
      <feOffset dy="3" input="SourceAlpha"/>
      <feGaussianBlur stdDeviation="3" result="blur"/>
      <feFlood flood-opacity="0.161"/>
      <feComposite operator="in" in2="blur"/>
      <feComposite in="SourceGraphic"/>
    </filter>
    <clipPath id="clip-path-5">
      <rect id="Rectangle_20980" data-name="Rectangle 20980" width="144.558" height="319.118" fill="none"/>
    </clipPath>
    <clipPath id="clip-path-7">
      <rect id="Rectangle_21006" data-name="Rectangle 21006" width="48.167" height="62.347" fill="none"/>
    </clipPath>
    <clipPath id="clip-path-8">
      <rect id="Rectangle_21010" data-name="Rectangle 21010" width="68.26" height="174.527" fill="none"/>
    </clipPath>
    <clipPath id="clip-path-10">
      <rect id="Rectangle_21008" data-name="Rectangle 21008" width="2.241" height="2.268" fill="none"/>
    </clipPath>
    <clipPath id="clip-path-11">
      <rect id="Rectangle_21011" data-name="Rectangle 21011" width="89.853" height="138.773" fill="none"/>
    </clipPath>
    <filter id="Path_99237" x="125.323" y="48.277" width="115.741" height="115.742" filterUnits="userSpaceOnUse">
      <feOffset dy="3" input="SourceAlpha"/>
      <feGaussianBlur stdDeviation="3" result="blur-2"/>
      <feFlood flood-opacity="0.161"/>
      <feComposite operator="in" in2="blur-2"/>
      <feComposite in="SourceGraphic"/>
    </filter>
  </defs>
  <g id="Build_a_resume_illustration_" data-name="Build a resume illustration " transform="translate(-591 -263)" clip-path="url(#clip-path)">
    <g id="Group_134016" data-name="Group 134016">
      <g id="Group_133943" data-name="Group 133943">
        <g id="Group_133931" data-name="Group 133931" transform="translate(649.237 536.075)">
          <g id="Group_133930" data-name="Group 133930" transform="translate(0 0)" clip-path="url(#clip-path-2)">
            <path id="Path_99245" data-name="Path 99245" d="M17.524,1.954a.81.81,0,0,1-.046.212c-.047.161-.106.36-.178.606l-.722,2.317c-.324,1-.712,2.232-1.114,3.675s-.918,3.067-1.369,4.894c-.483,1.821-1,3.817-1.479,5.98-.527,2.15-.97,4.475-1.464,6.916-.91,4.894-1.741,10.307-2.326,16.023-.556,5.721-.812,11.192-.887,16.17,0,2.49-.023,4.857.068,7.069.039,2.216.155,4.275.269,6.155.082,1.881.258,3.577.373,5.069s.246,2.775.367,3.822q.159,1.531.249,2.415c.023.254.041.461.054.629a.762.762,0,0,1,0,.217.892.892,0,0,1-.047-.21c-.026-.168-.059-.372-.1-.624C9.1,82.7,8.986,81.9,8.845,80.88c-.148-1.045-.31-2.325-.443-3.817s-.337-3.189-.44-5.072c-.134-1.883-.269-3.945-.323-6.164-.108-2.217-.1-4.588-.111-7.084.054-4.99.3-10.477.854-16.21.587-5.731,1.431-11.156,2.366-16.057.507-2.444.965-4.77,1.508-6.922.492-2.163,1.032-4.159,1.534-5.977.473-1.828,1-3.45,1.435-4.884s.838-2.661,1.189-3.655q.509-1.455.8-2.294c.088-.24.161-.434.218-.592a.718.718,0,0,1,.09-.2" transform="translate(4.745 1.231)" fill="#455a64"/>
            <path id="Path_99246" data-name="Path 99246" d="M9.72,21.442a14.1,14.1,0,0,1,5.9-7.454,3.377,3.377,0,0,1,3.122-.574c1.324.641,1.431,2.5,1.037,3.921a10.391,10.391,0,0,1-4.3,5.856,8.767,8.767,0,0,1-6.448,1.625" transform="translate(5.696 8.33)" fill="#455a64"/>
            <path id="Path_99247" data-name="Path 99247" d="M8.193,33.983c.98-3.7,3.937-8.973,7.007-11.267a4.524,4.524,0,0,1,1.593-.849,1.853,1.853,0,0,1,1.7.368,2.613,2.613,0,0,1,.381,2.46A14.944,14.944,0,0,1,7.8,35.845" transform="translate(4.918 13.743)" fill="#455a64"/>
            <path id="Path_99248" data-name="Path 99248" d="M7.652,42.757a21.7,21.7,0,0,1,7.069-8.89,3.376,3.376,0,0,1,2.467-.879c1.342.243,1.95,1.881,1.831,3.239-.245,2.794-2.379,5.036-4.583,6.772A28.325,28.325,0,0,1,7.9,46.36" transform="translate(4.823 20.774)" fill="#455a64"/>
            <path id="Path_99249" data-name="Path 99249" d="M7.871,48.9a20.883,20.883,0,0,1,6.014-6.847,4.331,4.331,0,0,1,1.8-.809,1.835,1.835,0,0,1,1.771.673c.6.885.028,2.082-.618,2.938a17.139,17.139,0,0,1-8.582,6.295" transform="translate(4.961 25.987)" fill="#455a64"/>
            <path id="Path_99250" data-name="Path 99250" d="M11.984,46.763A66.993,66.993,0,0,0,3.382,38c-.487-.414-1.105-.846-1.713-.649A1.284,1.284,0,0,0,.88,38.509a3.269,3.269,0,0,0,.328,1.436,16.67,16.67,0,0,0,11.073,9.316" transform="translate(0.552 23.514)" fill="#455a64"/>
            <path id="Path_99251" data-name="Path 99251" d="M12.809,38.19q-3.38-4.118-6.758-8.238A8.17,8.17,0,0,0,3.86,27.873a2.77,2.77,0,0,0-2.882-.034,2.729,2.729,0,0,0-.924,2.719,7.143,7.143,0,0,0,1.317,2.706,20.091,20.091,0,0,0,4.924,5.23c1.984,1.365,3.787,2.251,6.169,1.9" transform="translate(0 17.302)" fill="#455a64"/>
            <path id="Path_99252" data-name="Path 99252" d="M13.035,28.189a23.558,23.558,0,0,0-6.8-10.208,3.966,3.966,0,0,0-1.771-1.034,2.979,2.979,0,0,0-3.1,2.176A5.589,5.589,0,0,0,1.981,23.6a11.791,11.791,0,0,0,3.176,3.357,27.194,27.194,0,0,0,7.517,4.058" transform="translate(0.714 10.658)" fill="#455a64"/>
            <path id="Path_99253" data-name="Path 99253" d="M14.017,20.2C13.364,15.423,10.877,11.45,8,7.584,7.39,6.771,6.542,5.907,5.538,6.06a1.947,1.947,0,0,0-1.41,1.21A4.582,4.582,0,0,0,3.86,9.179a14.753,14.753,0,0,0,9.573,13.178" transform="translate(2.431 3.808)" fill="#455a64"/>
            <path id="Path_99254" data-name="Path 99254" d="M11.38,16.429a39.537,39.537,0,0,1-.248-7.384,13.207,13.207,0,0,1,2.452-6.877A5.689,5.689,0,0,1,16.038.212a3.1,3.1,0,0,1,3.01.4,3.28,3.28,0,0,1,1.03,2.651,8.329,8.329,0,0,1-.761,2.829c-1.8,4.33-4.8,9.127-7.936,10.338" transform="translate(6.96 -0.001)" fill="#455a64"/>
          </g>
        </g>
        <g id="Group_133933" data-name="Group 133933" transform="translate(678.583 551.028)">
          <g id="Group_133932" data-name="Group 133932" transform="translate(0 0)" clip-path="url(#clip-path-3)">
            <path id="Path_99255" data-name="Path 99255" d="M22.236,2.065a3.794,3.794,0,0,1-.011.722c-.034.527-.08,1.213-.137,2.067-.059.9-.147,1.994-.3,3.264s-.277,2.719-.523,4.309c-.422,3.189-1.087,6.965-1.982,11.125-.928,4.152-2.106,8.685-3.592,13.367-1.511,4.676-3.184,9.05-4.839,12.969C9.164,53.8,7.512,57.257,6,60.1c-.722,1.438-1.458,2.695-2.077,3.813S2.748,65.976,2.276,66.74c-.452.729-.812,1.314-1.089,1.762a3.63,3.63,0,0,1-.411.6,3.671,3.671,0,0,1,.318-.65l1-1.81c.445-.781.983-1.738,1.572-2.869s1.3-2.4,2-3.841C7.131,57.069,8.743,53.6,10.4,49.7c1.625-3.918,3.279-8.282,4.783-12.942,1.48-4.666,2.669-9.177,3.621-13.31.918-4.141,1.619-7.9,2.087-11.073.271-1.583.429-3.028.6-4.291s.3-2.354.388-3.248c.1-.849.176-1.533.235-2.056a3.741,3.741,0,0,1,.119-.714" transform="translate(0.488 1.302)" fill="#455a64"/>
            <path id="Path_99256" data-name="Path 99256" d="M14.226,19.854a12.011,12.011,0,0,0-2.087-7.831,2.876,2.876,0,0,0-2.247-1.508c-1.252.052-1.968,1.472-2.139,2.715a8.842,8.842,0,0,0,1.373,6.036,7.47,7.47,0,0,0,4.49,3.46" transform="translate(4.836 6.628)" fill="#455a64"/>
            <path id="Path_99257" data-name="Path 99257" d="M11.161,30.266c.491-3.23-.034-8.352-1.656-11.187a3.866,3.866,0,0,0-.959-1.2,1.579,1.579,0,0,0-1.458-.29,2.232,2.232,0,0,0-1.131,1.8,12.737,12.737,0,0,0,4.878,12.475" transform="translate(3.615 11.036)" fill="#455a64"/>
            <path id="Path_99258" data-name="Path 99258" d="M8.768,37.266a18.489,18.489,0,0,0-2.512-9.35,2.876,2.876,0,0,0-1.63-1.523c-1.131-.266-2.163.809-2.53,1.911-.758,2.268.152,4.746,1.285,6.851A24.269,24.269,0,0,0,7.354,40" transform="translate(1.145 16.611)" fill="#455a64"/>
            <path id="Path_99259" data-name="Path 99259" d="M5.78,41.863a17.8,17.8,0,0,0-2.38-7.4,3.718,3.718,0,0,0-1.136-1.244A1.565,1.565,0,0,0,.649,33.15c-.771.487-.729,1.619-.514,2.506A14.626,14.626,0,0,0,4.712,43.49" transform="translate(0 20.775)" fill="#455a64"/>
            <path id="Path_99260" data-name="Path 99260" d="M5.064,37.851a57.1,57.1,0,0,1,9.7-3.934,1.65,1.65,0,0,1,1.56.075,1.092,1.092,0,0,1,.225,1.171,2.777,2.777,0,0,1-.743,1.012A14.21,14.21,0,0,1,3.985,39.7" transform="translate(2.512 21.28)" fill="#455a64"/>
            <path id="Path_99261" data-name="Path 99261" d="M7.777,31.071l8.078-4.149a6.954,6.954,0,0,1,2.419-.884,2.368,2.368,0,0,1,2.266.952,2.328,2.328,0,0,1-.2,2.441A6.121,6.121,0,0,1,18.392,31.1a17.133,17.133,0,0,1-5.625,2.419c-2.013.395-3.725.476-5.468-.606" transform="translate(4.601 16.404)" fill="#455a64"/>
            <path id="Path_99262" data-name="Path 99262" d="M10.865,23.235a20.061,20.061,0,0,1,8.779-5.675,3.372,3.372,0,0,1,1.736-.207A2.537,2.537,0,0,1,23.066,20.1a4.76,4.76,0,0,1-2,3.288,10.04,10.04,0,0,1-3.623,1.549,23.219,23.219,0,0,1-7.253.624" transform="translate(6.423 10.908)" fill="#455a64"/>
            <path id="Path_99263" data-name="Path 99263" d="M12.5,16.5c2.131-3.512,5.423-5.776,8.986-7.821a2.468,2.468,0,0,1,2.439-.359,1.661,1.661,0,0,1,.693,1.425,3.864,3.864,0,0,1-.439,1.583,12.576,12.576,0,0,1-11.955,7.058" transform="translate(7.708 5.117)" fill="#455a64"/>
            <path id="Path_99264" data-name="Path 99264" d="M14.112,15.055a33.681,33.681,0,0,0,2.7-5.69,11.258,11.258,0,0,0,.416-6.208A4.83,4.83,0,0,0,15.971.794a2.642,2.642,0,0,0-2.49-.709,2.792,2.792,0,0,0-1.7,1.723,7.089,7.089,0,0,0-.365,2.47c-.06,4,.66,8.766,2.7,10.777" transform="translate(7.191 0)" fill="#455a64"/>
          </g>
        </g>
        <g id="Group_133935" data-name="Group 133935" transform="translate(610 549.331)">
          <g id="Group_133934" data-name="Group 133934" transform="translate(0 0)" clip-path="url(#clip-path-4)">
            <path id="Path_99265" data-name="Path 99265" d="M6.666,1.97a3.777,3.777,0,0,1,.044.722c.007.527.015,1.213.023,2.069,0,.9,0,2,.052,3.272s.051,2.726.157,4.329c.139,3.205.45,7.017.936,11.23C8.4,27.8,9.118,32.41,10.109,37.2c1.019,4.79,2.214,9.3,3.427,13.366,1.247,4.055,2.494,7.669,3.654,10.661.548,1.51,1.123,2.843,1.6,4.027s.9,2.194,1.268,3.016c.334.786.6,1.418.81,1.9a3.771,3.771,0,0,1,.249.68,3.7,3.7,0,0,1-.347-.634l-.9-1.863c-.393-.81-.858-1.808-1.353-2.985s-1.1-2.5-1.671-4.006c-1.208-2.982-2.5-6.595-3.774-10.654-1.242-4.069-2.457-8.594-3.478-13.4-1-4.809-1.7-9.438-2.2-13.664-.461-4.231-.734-8.055-.827-11.272-.082-1.606-.065-3.062-.078-4.34s0-2.379.039-3.277c.033-.856.057-1.542.077-2.069a3.8,3.8,0,0,1,.064-.721" transform="translate(4.084 1.241)" fill="#263238"/>
            <path id="Path_99266" data-name="Path 99266" d="M7.369,19.73a12.013,12.013,0,0,1,2.881-7.575,2.88,2.88,0,0,1,2.39-1.268c1.241.179,1.806,1.666,1.85,2.92A8.855,8.855,0,0,1,12.5,19.669,7.464,7.464,0,0,1,7.68,22.648" transform="translate(4.645 6.851)" fill="#263238"/>
            <path id="Path_99267" data-name="Path 99267" d="M9.055,30.38c-.155-3.262.893-8.3,2.8-10.957a3.825,3.825,0,0,1,1.078-1.1,1.577,1.577,0,0,1,1.479-.139,2.229,2.229,0,0,1,.942,1.9A12.736,12.736,0,0,1,9.216,31.992" transform="translate(5.698 11.382)" fill="#263238"/>
            <path id="Path_99268" data-name="Path 99268" d="M11.222,37.617a18.478,18.478,0,0,1,3.461-9.042,2.876,2.876,0,0,1,1.779-1.348c1.153-.147,2.067,1.029,2.32,2.162.52,2.335-.639,4.705-1.984,6.683a24.234,24.234,0,0,1-4.451,4.412" transform="translate(7.074 17.154)" fill="#263238"/>
            <path id="Path_99269" data-name="Path 99269" d="M13.191,42.452a17.78,17.78,0,0,1,3.129-7.11,3.7,3.7,0,0,1,1.259-1.122,1.569,1.569,0,0,1,1.612.093c.717.564.558,1.686.253,2.545a14.615,14.615,0,0,1-5.357,7.322" transform="translate(8.315 21.458)" fill="#263238"/>
            <path id="Path_99270" data-name="Path 99270" d="M16.638,38.945A57.123,57.123,0,0,0,7.4,34.034a1.649,1.649,0,0,0-1.56-.086,1.1,1.1,0,0,0-.344,1.141,2.8,2.8,0,0,0,.634,1.084A14.221,14.221,0,0,0,17.522,40.9" transform="translate(3.44 21.292)" fill="#263238"/>
            <path id="Path_99271" data-name="Path 99271" d="M15.012,31.911,7.4,26.953a6.931,6.931,0,0,0-2.315-1.128,2.364,2.364,0,0,0-2.351.712,2.33,2.33,0,0,0-.054,2.449,6.119,6.119,0,0,0,1.767,1.86A17.086,17.086,0,0,0,9.8,33.833c1.963.6,3.655.858,5.5-.041" transform="translate(1.49 16.241)" fill="#263238"/>
            <path id="Path_99272" data-name="Path 99272" d="M12.535,23.776a20.078,20.078,0,0,0-8.148-6.549,3.392,3.392,0,0,0-1.705-.385A2.541,2.541,0,0,0,.72,19.408a4.767,4.767,0,0,0,1.652,3.476A10.086,10.086,0,0,0,5.817,24.8a23.28,23.28,0,0,0,7.151,1.366" transform="translate(0.454 10.608)" fill="#263238"/>
            <path id="Path_99273" data-name="Path 99273" d="M11.37,16.92c-1.759-3.712-4.8-6.3-8.134-8.7a2.47,2.47,0,0,0-2.39-.608A1.661,1.661,0,0,0,.011,8.955a3.882,3.882,0,0,0,.272,1.621,12.574,12.574,0,0,0,11.166,8.25" transform="translate(0 4.709)" fill="#263238"/>
            <path id="Path_99274" data-name="Path 99274" d="M7.66,14.984a33.647,33.647,0,0,1-2.1-5.938,11.269,11.269,0,0,1,.225-6.218A4.842,4.842,0,0,1,7.278.608,2.642,2.642,0,0,1,9.826.16a2.793,2.793,0,0,1,1.519,1.888,7.124,7.124,0,0,1,.108,2.5C11.1,8.525,9.895,13.194,7.66,14.984" transform="translate(3.299 0)" fill="#263238"/>
          </g>
        </g>
      </g>
      <g id="Floor" transform="translate(595.402 526.073)">
        <g id="Group_28231" data-name="Group 28231" transform="translate(0)">
          <g id="Group_28230" data-name="Group 28230" transform="translate(0)">
            <path id="Path_46364" data-name="Path 46364" d="M619.483,475.094c0,.061-123.27.114-275.283.114-152.076,0-275.31-.053-275.31-.114s123.243-.114,275.31-.114C496.213,474.98,619.483,475.028,619.483,475.094Z" transform="translate(-64.414 -379.853)" fill="#263238"/>
            <g id="Group_29675" data-name="Group 29675" transform="translate(35.013 77.268)">
              <g id="Group_29659" data-name="Group 29659" transform="translate(0 0.266)">
                <g id="Group_29658" data-name="Group 29658">
                  <path id="Path_42968" data-name="Path 42968" d="M592.421,439.954l-12.8-5.054L558.3,438.8l-10.4,13.832,50.741.089Z" transform="translate(-547.9 -434.9)" fill="#b3bdc0"/>
                </g>
              </g>
              <g id="Group_29661" data-name="Group 29661" transform="translate(10.397 0.266)">
                <g id="Group_29660" data-name="Group 29660">
                  <path id="Path_42969" data-name="Path 42969" d="M559.6,438.8c.622-.089,34.213,1.153,34.213,1.153l-12.8-5.054Z" transform="translate(-559.6 -434.9)" fill="rgba(0,0,0,0.2)"/>
                </g>
              </g>
              <g id="Group_29664" data-name="Group 29664">
                <g id="Group_29663" data-name="Group 29663">
                  <g id="Group_29662" data-name="Group 29662">
                    <path id="Path_42970" data-name="Path 42970" d="M547.9,452.6a1.1,1.1,0,0,0,.178-.266,3.1,3.1,0,0,0,.533-.8c.533-.709,1.155-1.685,2.044-2.837,1.866-2.483,4.354-5.94,7.465-10.108l.089-.089h.089c4.621-.887,10.131-1.862,15.907-2.926,1.866-.355,3.643-.709,5.421-.975h.178c4.71,1.862,9.064,3.635,12.8,5.054h.089v.089c1.866,3.812,3.377,7,4.443,9.31.533,1.064.889,1.951,1.155,2.571a6.151,6.151,0,0,0,.267.709.684.684,0,0,1,.089.266l-.178-.177a5.106,5.106,0,0,0-.356-.621c-.355-.621-.711-1.507-1.333-2.571-1.155-2.217-2.666-5.409-4.532-9.221l.089.089c-3.732-1.419-8.087-3.192-12.8-5.054h.089c-1.777.355-3.554.621-5.421.975-5.776,1.064-11.2,2.039-15.907,2.837l.089-.089c-3.11,4.079-5.687,7.536-7.554,10.019-.889,1.153-1.6,2.128-2.133,2.748-.267.266-.444.532-.622.709A.968.968,0,0,1,547.9,452.6Z" transform="translate(-547.9 -434.6)" fill="#263238"/>
                  </g>
                </g>
              </g>
            </g>
            <g id="Group_29100" data-name="Group 29100" transform="translate(451.975 12.825)">
              <g id="Group_29090" data-name="Group 29090" transform="translate(19.383 2.423)">
                <g id="Group_29089" data-name="Group 29089">
                  <g id="Group_29088" data-name="Group 29088">
                    <path id="Path_42819" data-name="Path 42819" d="M638.2,320.5c2.423,17.237,4.846,34.543,7.269,51.78l1.869.069C646.161,354.7,644.846,336.768,638.2,320.5Z" transform="translate(-638.2 -320.5)" fill="#455a64"/>
                  </g>
                </g>
              </g>
              <g id="Group_29093" data-name="Group 29093" transform="translate(29.427)">
                <g id="Group_29092" data-name="Group 29092">
                  <g id="Group_29091" data-name="Group 29091">
                    <path id="Path_42820" data-name="Path 42820" d="M662.81,317c-5.053,5.538-7.13,13.222-8.376,20.629-1.8,10.522-2.008,22.983-1.454,33.643l2.63.069A147.452,147.452,0,0,1,662.81,317Z" transform="translate(-652.709 -317)" fill="#455a64"/>
                  </g>
                </g>
              </g>
              <g id="Group_29096" data-name="Group 29096" transform="translate(0 14.745)">
                <g id="Group_29095" data-name="Group 29095">
                  <g id="Group_29094" data-name="Group 29094">
                    <path id="Path_42821" data-name="Path 42821" d="M630.9,356.575a20.812,20.812,0,0,0-2.7-7.338c-2.008-2.977-5.192-4.846-8.445-6.3s-6.646-2.631-9.553-4.638c3.254,5.33,10.661,6.784,14.468,11.768,1.869,2.492,2.63,5.607,3.392,8.653,1.592,6.646,2.561,12.322,4.223,18.968h2.146A184.027,184.027,0,0,0,630.9,356.575Z" transform="translate(-610.2 -338.3)" fill="#455a64"/>
                  </g>
                </g>
              </g>
              <g id="Group_29099" data-name="Group 29099" transform="translate(34.267 16.113)">
                <g id="Group_29098" data-name="Group 29098">
                  <g id="Group_29097" data-name="Group 29097">
                    <path id="Path_42822" data-name="Path 42822" d="M659.7,378.366s1.8-20.56,3.184-24.367c1.315-3.807,14.122-14.191,13.983-13.706s-9.553,11.907-10.938,14.26c-1.315,2.354-3.669,23.813-3.669,23.813Z" transform="translate(-659.7 -340.276)" fill="#455a64"/>
                  </g>
                </g>
              </g>
            </g>
            <path id="Path_42817" data-name="Path 42817" d="M701.877,428c-.882-17.392-20.989-16.454-34.508-28.735l-31-17.266L608.45,392.965l-4.915,7.94a36.5,36.5,0,0,1-11.847,11.784C585.7,416.343,577.7,422.14,574.8,428Z" transform="translate(-178.331 -332.646)" fill="#b3bdc0"/>
            <path id="Path_99275" data-name="Path 99275" d="M458.145,49.453s-10.2,2.734-11.611,6.495c-3.194,8.508.7,23.716,4.125,24.082,4.787.512,38.29-13.406,38.29-13.406Z" fill="#d2d8de" opacity="0.437"/>
          </g>
        </g>
      </g>
      <g transform="matrix(1, 0, 0, 1, 591, 263)" filter="url(#Rectangle_20981)">
        <rect id="Rectangle_20981-2" data-name="Rectangle 20981" width="308" height="347" rx="6" transform="translate(124 11)" fill="#fff"/>
      </g>
      <path id="Rectangle_20982" data-name="Rectangle 20982" d="M6,0H302a6,6,0,0,1,6,6V32a0,0,0,0,1,0,0H0a0,0,0,0,1,0,0V6A6,6,0,0,1,6,0Z" transform="translate(715 274)" fill="#0092cb" opacity="0.398"/>
      <path id="Rectangle_20986" data-name="Rectangle 20986" d="M0,0H62a0,0,0,0,1,0,0V315a0,0,0,0,1,0,0H6a6,6,0,0,1-6-6V0A0,0,0,0,1,0,0Z" transform="translate(715 306)" fill="#0092cb" opacity="0.122"/>
      <rect id="Rectangle_20983" data-name="Rectangle 20983" width="131" height="9" transform="translate(845 337)" fill="#b3bdc0"/>
      <rect id="Rectangle_20984" data-name="Rectangle 20984" width="88" height="8" transform="translate(845 356)" fill="#b3bdc0"/>
      <rect id="Rectangle_20985" data-name="Rectangle 20985" width="88" height="9" transform="translate(845 374)" fill="#b3bdc0"/>
      <rect id="Rectangle_20987" data-name="Rectangle 20987" width="159" height="12" transform="translate(845 408)" fill="#99d3ea" opacity="0.537"/>
      <rect id="Rectangle_20988" data-name="Rectangle 20988" width="159" height="12" transform="translate(845 534)" fill="#99d3ea" opacity="0.537"/>
      <g id="Group_133924" data-name="Group 133924" transform="translate(7424 3282)">
        <line id="Line_259" data-name="Line 259" x2="159" transform="translate(-6578.5 -2805.5)" fill="none" stroke="#b3bdc0" stroke-linecap="round" stroke-width="2"/>
        <circle id="Ellipse_2509" data-name="Ellipse 2509" cx="8" cy="8" r="8" transform="translate(-6574 -2813)" fill="#d2d8de"/>
        <circle id="Ellipse_2516" data-name="Ellipse 2516" cx="8" cy="8" r="8" transform="translate(-6466 -2813)" fill="#d2d8de"/>
        <circle id="Ellipse_2511" data-name="Ellipse 2511" cx="8" cy="8" r="8" transform="translate(-6520 -2813)" fill="#d2d8de"/>
        <circle id="Ellipse_2510" data-name="Ellipse 2510" cx="8" cy="8" r="8" transform="translate(-6547 -2813)" fill="#d2d8de"/>
        <circle id="Ellipse_2515" data-name="Ellipse 2515" cx="8" cy="8" r="8" transform="translate(-6439 -2813)" fill="#d2d8de"/>
        <circle id="Ellipse_2512" data-name="Ellipse 2512" cx="8" cy="8" r="8" transform="translate(-6493 -2813)" fill="#d2d8de"/>
      </g>
      <g id="Group_133925" data-name="Group 133925" transform="translate(7424 3266)">
        <line id="Line_261" data-name="Line 261" x2="58" transform="translate(-6571.5 -2809.5)" fill="none" stroke="#b3bdc0" stroke-linecap="round" stroke-width="1"/>
        <line id="Line_262" data-name="Line 262" x2="58" transform="translate(-6571.5 -2815.5)" fill="none" stroke="#b3bdc0" stroke-linecap="round" stroke-width="1"/>
        <line id="Line_265" data-name="Line 265" x2="58" transform="translate(-6571.5 -2827.5)" fill="none" stroke="#b3bdc0" stroke-linecap="round" stroke-width="1"/>
        <line id="Line_263" data-name="Line 263" x2="58" transform="translate(-6571.5 -2821.5)" fill="none" stroke="#b3bdc0" stroke-linecap="round" stroke-width="1"/>
        <line id="Line_264" data-name="Line 264" x2="58" transform="translate(-6571.5 -2833.5)" fill="none" stroke="#b3bdc0" stroke-linecap="round" stroke-width="1"/>
      </g>
      <g id="Group_133928" data-name="Group 133928" transform="translate(7424 3331)">
        <line id="Line_261-2" data-name="Line 261" x2="58" transform="translate(-6571.5 -2809.5)" fill="none" stroke="#b3bdc0" stroke-linecap="round" stroke-width="1"/>
        <line id="Line_262-2" data-name="Line 262" x2="58" transform="translate(-6571.5 -2815.5)" fill="none" stroke="#b3bdc0" stroke-linecap="round" stroke-width="1"/>
        <line id="Line_265-2" data-name="Line 265" x2="58" transform="translate(-6571.5 -2827.5)" fill="none" stroke="#b3bdc0" stroke-linecap="round" stroke-width="1"/>
        <line id="Line_263-2" data-name="Line 263" x2="58" transform="translate(-6571.5 -2821.5)" fill="none" stroke="#b3bdc0" stroke-linecap="round" stroke-width="1"/>
        <line id="Line_264-2" data-name="Line 264" x2="58" transform="translate(-6571.5 -2833.5)" fill="none" stroke="#b3bdc0" stroke-linecap="round" stroke-width="1"/>
      </g>
      <g id="Group_133926" data-name="Group 133926" transform="translate(7507.5 3266)">
        <line id="Line_261-3" data-name="Line 261" x2="58" transform="translate(-6571.5 -2809.5)" fill="none" stroke="#b3bdc0" stroke-linecap="round" stroke-width="1"/>
        <line id="Line_262-3" data-name="Line 262" x2="58" transform="translate(-6571.5 -2815.5)" fill="none" stroke="#b3bdc0" stroke-linecap="round" stroke-width="1"/>
        <line id="Line_265-3" data-name="Line 265" x2="58" transform="translate(-6571.5 -2827.5)" fill="none" stroke="#b3bdc0" stroke-linecap="round" stroke-width="1"/>
        <line id="Line_263-3" data-name="Line 263" x2="58" transform="translate(-6571.5 -2821.5)" fill="none" stroke="#b3bdc0" stroke-linecap="round" stroke-width="1"/>
        <line id="Line_264-3" data-name="Line 264" x2="58" transform="translate(-6571.5 -2833.5)" fill="none" stroke="#b3bdc0" stroke-linecap="round" stroke-width="1"/>
      </g>
      <g id="Group_133927" data-name="Group 133927" transform="translate(7507.5 3331)">
        <line id="Line_261-4" data-name="Line 261" x2="58" transform="translate(-6571.5 -2809.5)" fill="none" stroke="#b3bdc0" stroke-linecap="round" stroke-width="1"/>
        <line id="Line_262-4" data-name="Line 262" x2="58" transform="translate(-6571.5 -2815.5)" fill="none" stroke="#b3bdc0" stroke-linecap="round" stroke-width="1"/>
        <line id="Line_265-4" data-name="Line 265" x2="58" transform="translate(-6571.5 -2827.5)" fill="none" stroke="#b3bdc0" stroke-linecap="round" stroke-width="1"/>
        <line id="Line_263-4" data-name="Line 263" x2="58" transform="translate(-6571.5 -2821.5)" fill="none" stroke="#b3bdc0" stroke-linecap="round" stroke-width="1"/>
        <line id="Line_264-4" data-name="Line 264" x2="58" transform="translate(-6571.5 -2833.5)" fill="none" stroke="#b3bdc0" stroke-linecap="round" stroke-width="1"/>
      </g>
      <g id="Group_133929" data-name="Group 133929" transform="translate(7496.5 3409.5)">
        <line id="Line_261-5" data-name="Line 261" x2="75" transform="translate(-6571.5 -2809.5)" fill="none" stroke="#b3bdc0" stroke-linecap="round" stroke-width="1"/>
        <line id="Line_262-5" data-name="Line 262" x2="75" transform="translate(-6571.5 -2815.5)" fill="none" stroke="#b3bdc0" stroke-linecap="round" stroke-width="1"/>
        <line id="Line_266" data-name="Line 266" x2="75" transform="translate(-6571.5 -2803.5)" fill="none" stroke="#b3bdc0" stroke-linecap="round" stroke-width="1"/>
        <line id="Line_265-5" data-name="Line 265" x2="75" transform="translate(-6571.5 -2827.5)" fill="none" stroke="#b3bdc0" stroke-linecap="round" stroke-width="1"/>
        <line id="Line_263-5" data-name="Line 263" x2="75" transform="translate(-6571.5 -2821.5)" fill="none" stroke="#b3bdc0" stroke-linecap="round" stroke-width="1"/>
        <line id="Line_264-5" data-name="Line 264" x2="75" transform="translate(-6571.5 -2833.5)" fill="none" stroke="#b3bdc0" stroke-linecap="round" stroke-width="1"/>
      </g>
      <g id="Ellipse_2517" data-name="Ellipse 2517" transform="translate(848 556)" fill="none" stroke="#d2d8de" stroke-width="2">
        <circle cx="12" cy="12" r="12" stroke="none"/>
        <circle cx="12" cy="12" r="11" fill="none"/>
      </g>
      <g id="Ellipse_2520" data-name="Ellipse 2520" transform="translate(848 588)" fill="none" stroke="#d2d8de" stroke-width="2">
        <circle cx="12" cy="12" r="12" stroke="none"/>
        <circle cx="12" cy="12" r="11" fill="none"/>
      </g>
      <g id="Ellipse_2518" data-name="Ellipse 2518" transform="translate(880 556)" fill="none" stroke="#d2d8de" stroke-width="2">
        <circle cx="12" cy="12" r="12" stroke="none"/>
        <circle cx="12" cy="12" r="11" fill="none"/>
      </g>
      <g id="Ellipse_2519" data-name="Ellipse 2519" transform="translate(880 588)" fill="none" stroke="#d2d8de" stroke-width="2">
        <circle cx="12" cy="12" r="12" stroke="none"/>
        <circle cx="12" cy="12" r="11" fill="none"/>
      </g>
      <rect id="Rectangle_20989" data-name="Rectangle 20989" width="75" height="9" transform="translate(925 559)" fill="#b3bdc0"/>
      <path id="Path_99244" data-name="Path 99244" d="M-6886-480.131c-1.756-.045-11.038,1.814-10.936,11.247s8.021,10.835,10.936,10.95" transform="translate(7746 1037)" fill="none" stroke="#71b8d6" stroke-linecap="round" stroke-width="3"/>
      <path id="Polygon_1" data-name="Polygon 1" d="M10.5,0l2.479,6.875H21l-6.489,4.249L16.989,18,10.5,13.751,4.011,18l2.479-6.875L0,6.875H8.021Z" transform="translate(858.5 281)" fill="#fff"/>
      <path id="Polygon_4" data-name="Polygon 4" d="M10.5,0l2.479,6.875H21l-6.489,4.249L16.989,18,10.5,13.751,4.011,18l2.479-6.875L0,6.875H8.021Z" transform="translate(912.5 281)" fill="#fff"/>
      <path id="Polygon_6" data-name="Polygon 6" d="M10.5,0l2.479,6.875H21l-6.489,4.249L16.989,18,10.5,13.751,4.011,18l2.479-6.875L0,6.875H8.021Z" transform="translate(804.5 281)" fill="#fff"/>
      <path id="Polygon_2" data-name="Polygon 2" d="M10.5,0l2.479,6.875H21l-6.489,4.249L16.989,18,10.5,13.751,4.011,18l2.479-6.875L0,6.875H8.021Z" transform="translate(885.5 281)" fill="#fff"/>
      <path id="Polygon_5" data-name="Polygon 5" d="M10.5,0l2.479,6.875H21l-6.489,4.249L16.989,18,10.5,13.751,4.011,18l2.479-6.875L0,6.875H8.021Z" transform="translate(831.5 281)" fill="#fff"/>
      <g id="Group_133963" data-name="Group 133963" transform="translate(697.442 317.277)">
        <g id="Group_133921" data-name="Group 133921" clip-path="url(#clip-path-5)">
          <g id="Group_133920" data-name="Group 133920">
            <g id="Group_133919" data-name="Group 133919" clip-path="url(#clip-path-5)">
              <path id="Path_99335" data-name="Path 99335" d="M48.052,84.3c-3.271,2.089-6.924,5.476-8.655,8.951-3.135,6.292-25.106,23.2-25.963,27.3-1.976,17.492,17.369,17.266,25.2,7.908,4.053-4.842,12.987-22.982,12.987-22.982Z" transform="translate(1.889 -4.138)" fill="#769eb2"/>
              <path id="Path_99336" data-name="Path 99336" d="M22.426,111.843S36.948,88.463,39.8,85.191c4.36-5,11.941-7.005,11.941-7.005l1.633,30.657c.1-.424-15.009,18.886-15.009,18.886s-14.111-10.485-15.937-15.886" transform="translate(2.626 -4.631)" fill="#769eb2"/>
              <path id="Path_99337" data-name="Path 99337" d="M32.13,126.132c-.041-.031.456-.6,1.026-1.669a11.443,11.443,0,0,0,.813-1.95,11.741,11.741,0,0,0,.419-5.117,11.406,11.406,0,0,0-.484-2.056c-.388-1.143-.786-1.789-.74-1.813a2.147,2.147,0,0,1,.292.443,4.289,4.289,0,0,1,.29.551,7.005,7.005,0,0,1,.323.761,10.441,10.441,0,0,1,.546,2.081,11.245,11.245,0,0,1-.428,5.219,10.543,10.543,0,0,1-.876,1.965,7.25,7.25,0,0,1-.443.7,4.185,4.185,0,0,1-.376.5,2.154,2.154,0,0,1-.36.39" transform="translate(3.409 -1.778)"/>
              <g id="Group_133950" data-name="Group 133950" transform="translate(48.195 12.871)">
                <g id="Group_133949" data-name="Group 133949" transform="translate(0 0)" clip-path="url(#clip-path-7)">
                  <path id="Path_99280" data-name="Path 99280" d="M43.194,58.359l.42-34.443C44,15.352,39.332,7.99,30.761,7.844l-.793.033a15.327,15.327,0,0,0-14.684,14.71c-.291,7.425-.517,15.633-.3,19.6.442,8.215,8.715,9.154,8.715,9.154.018,0,.051,5,.047,7.415L21.809,64.4l6.763-1.647Z" transform="translate(-3.89 -2.049)" fill="#ffc09d"/>
                  <path id="Path_99281" data-name="Path 99281" d="M26.8,65.445a19.869,19.869,0,0,0,10.571-3.606s-2.319,6.286-10.551,5.885Z" transform="translate(-7.001 -16.153)" fill="#ff9b6c"/>
                  <path id="Path_99282" data-name="Path 99282" d="M21.113,37.4a1.175,1.175,0,0,0,1.181,1.138,1.123,1.123,0,0,0,1.166-1.109A1.174,1.174,0,0,0,22.28,36.29,1.125,1.125,0,0,0,21.113,37.4" transform="translate(-5.515 -9.479)" fill="#263238"/>
                  <path id="Path_99283" data-name="Path 99283" d="M17.982,32.143c.151.147,1.014-.548,2.277-.6,1.261-.066,2.215.544,2.346.384.064-.071-.1-.341-.511-.618a3.224,3.224,0,0,0-1.885-.5,3.1,3.1,0,0,0-1.8.666c-.375.314-.5.6-.421.662" transform="translate(-4.691 -8.048)" fill="#263238"/>
                  <path id="Path_99284" data-name="Path 99284" d="M37.3,37a1.174,1.174,0,0,0,1.181,1.137,1.123,1.123,0,0,0,1.167-1.108,1.176,1.176,0,0,0-1.18-1.138A1.124,1.124,0,0,0,37.3,37" transform="translate(-9.742 -9.376)" fill="#263238"/>
                  <path id="Path_99285" data-name="Path 99285" d="M34.757,31.847c.152.147,1.015-.547,2.278-.6,1.261-.066,2.215.544,2.346.384.064-.072-.094-.341-.511-.618a3.224,3.224,0,0,0-1.885-.5,3.1,3.1,0,0,0-1.8.666c-.375.314-.5.6-.422.662" transform="translate(-9.073 -7.971)" fill="#263238"/>
                  <path id="Path_99286" data-name="Path 99286" d="M28.023,41.979a8.391,8.391,0,0,0-2.066-.285c-.324-.02-.632-.072-.7-.29a1.645,1.645,0,0,1,.175-.965l.853-2.5a42.245,42.245,0,0,0,1.877-6.512,42.178,42.178,0,0,0-2.4,6.346c-.284.876-.554,1.71-.812,2.509a1.874,1.874,0,0,0-.115,1.272.812.812,0,0,0,.55.45,2.228,2.228,0,0,0,.552.054,8.256,8.256,0,0,0,2.079-.083" transform="translate(-6.469 -8.21)" fill="#263238"/>
                  <path id="Path_99287" data-name="Path 99287" d="M33.984,26.477c.185.315,1.4-.075,2.887-.168,1.489-.124,2.745.086,2.882-.253.059-.161-.2-.441-.741-.68a5.031,5.031,0,0,0-4.4.321c-.495.315-.716.63-.633.781" transform="translate(-8.872 -6.534)" fill="#263238"/>
                  <path id="Path_99288" data-name="Path 99288" d="M17.688,27.1c.27.28,1.291-.045,2.528-.092,1.235-.083,2.29.132,2.523-.174.1-.149-.07-.431-.535-.691a3.98,3.98,0,0,0-2.069-.416,3.922,3.922,0,0,0-2,.629c-.429.307-.565.607-.445.743" transform="translate(-4.609 -6.72)" fill="#263238"/>
                  <path id="Path_99289" data-name="Path 99289" d="M53.2,37.754c.137-.066,5.579-1.9,5.631,3.723S53.223,46,53.212,45.835s-.013-8.08-.013-8.08" transform="translate(-13.896 -9.773)" fill="#ffc09d"/>
                  <path id="Path_99290" data-name="Path 99290" d="M55.514,44.328c.024-.018.1.068.265.142a.976.976,0,0,0,.732.008,2.424,2.424,0,0,0,1.1-2.186,3.244,3.244,0,0,0-.287-1.4,1.132,1.132,0,0,0-.745-.745.5.5,0,0,0-.576.274c-.074.158-.037.27-.067.28s-.122-.093-.078-.326a.624.624,0,0,1,.218-.355.738.738,0,0,1,.541-.149,1.377,1.377,0,0,1,1.032.863,3.328,3.328,0,0,1,.355,1.565A2.545,2.545,0,0,1,56.6,44.741a1.05,1.05,0,0,1-.9-.14c-.176-.137-.206-.263-.187-.273" transform="translate(-14.499 -10.413)" fill="#ff9b6c"/>
                  <path id="Path_99291" data-name="Path 99291" d="M33.2,46.767c-.194-.012-.2,1.28-1.312,2.192s-2.485.764-2.5.944c-.018.081.305.253.887.271a3.219,3.219,0,0,0,2.083-.715,2.8,2.8,0,0,0,1.017-1.838c.052-.541-.091-.861-.18-.854" transform="translate(-7.676 -12.216)" fill="#263238"/>
                  <path id="Path_99292" data-name="Path 99292" d="M.036,13.135a1.332,1.332,0,0,1,.617-.785,4.1,4.1,0,0,1,2.1-.366,11.845,11.845,0,0,0,5.133-1.352A5.862,5.862,0,0,1,6.362,9.587a3.531,3.531,0,0,1-1.056-3.5.782.782,0,0,1,.435-.543c.364-.117.689.239.946.521A3.04,3.04,0,0,0,9.563,7.244,4.991,4.991,0,0,0,11.7,6.587c.024-.025.045-.054.069-.079.289-.305.572-.6.85-.879l0,0v0a18.608,18.608,0,0,1,5.762-4.375,19.123,19.123,0,0,1,10.2-.918c2.873.719,5.472,3.014,5.9,5.943a5.942,5.942,0,0,1,5.968-.628l.049-.022c2.188.752,3.451,3.04,4.12,5.254.036.121.068.244.1.366a8.642,8.642,0,0,0,2.965,2.83c.212.12.455.267.483.51s-.172.441-.367.584a4.337,4.337,0,0,1-1.755.752,9.82,9.82,0,0,0,.74,1.523c.25.414.549.909.338,1.345a.918.918,0,0,1-.957.43,2.7,2.7,0,0,1-1.02-.448l.749,1.738a5.153,5.153,0,0,1-2.372-.132c-.44,2.083-.744,5.935-1.263,7.35a8.546,8.546,0,0,0-2.609.143c-.97.334-.579,2.055-1.853,1.579-.648-.242-1.667-2.677-1.891-3.332a32.128,32.128,0,0,1-1.546-13.584,10.333,10.333,0,0,0-3.215-2.265l.1.087c-2.31-.774-4.921-1.53-7.092-.425-1.684.857-2.659,2.625-3.909,4.041A11.778,11.778,0,0,1,11.6,18.3c-.294,2.488-.344,6.551-.439,8.87L9.13,22.557v.018A9.088,9.088,0,0,1,8.7,21.76l-.045-.083v-.01a14.227,14.227,0,0,0-.667-1.311l-.022.02a1.448,1.448,0,0,1-2.137-1.913,3.272,3.272,0,0,1,.692-.711,2.293,2.293,0,0,1-2.176.591,1.8,1.8,0,0,1-1.291-1.764,1.526,1.526,0,0,1,.9-1.236,5.166,5.166,0,0,1-2.944-.614c-.584-.324-1.158-.862-.97-1.594" transform="translate(0 0)" fill="#263238"/>
                  <path id="Path_99293" data-name="Path 99293" d="M43.174,9.817a7.188,7.188,0,0,1,.835.746,5.908,5.908,0,0,1,1.294,2.72,10.488,10.488,0,0,1,.235,2.09c.011.759-.041,1.571-.089,2.428a21.77,21.77,0,0,0-.031,2.7,9.443,9.443,0,0,0,.2,1.422,2.953,2.953,0,0,0,.6,1.376,1.246,1.246,0,0,0,1.167.378,1.848,1.848,0,0,0,1.039-.6,4.256,4.256,0,0,0,.769-2.1l-.171.023a6.9,6.9,0,0,0,1.02,1.713,2.451,2.451,0,0,0,1.613.854A1.583,1.583,0,0,0,52.5,23.4a1.373,1.373,0,0,0,.57-.575,1.42,1.42,0,0,0,.167-.731,1.027,1.027,0,0,0-.272-.638l-.086.078a5.305,5.305,0,0,0,1.783,1.308,5.021,5.021,0,0,0,.55.207.919.919,0,0,0,.2.046,1.035,1.035,0,0,0-.185-.077c-.124-.049-.307-.12-.536-.233a5.463,5.463,0,0,1-1.721-1.327l-.086.079a1.058,1.058,0,0,1,.069,1.223,1.243,1.243,0,0,1-.516.509,1.435,1.435,0,0,1-.768.134,2.3,2.3,0,0,1-1.5-.812,6.76,6.76,0,0,1-.983-1.677l-.122-.262-.052.285a4.126,4.126,0,0,1-.733,2.01,1.659,1.659,0,0,1-.929.539,1.047,1.047,0,0,1-.991-.32,2.816,2.816,0,0,1-.552-1.286,9.579,9.579,0,0,1-.2-1.393,22.075,22.075,0,0,1,.02-2.678c.044-.856.09-1.673.072-2.44a10.307,10.307,0,0,0-.262-2.117,5.821,5.821,0,0,0-1.373-2.74,3.332,3.332,0,0,0-.889-.7" transform="translate(-11.277 -2.565)" fill="#455a64"/>
                  <path id="Path_99294" data-name="Path 99294" d="M8.816,16.5s.021.021.066.055l.208.148a2.735,2.735,0,0,0,.352.219,4.443,4.443,0,0,0,.5.259,7.3,7.3,0,0,0,3.531.594,9.334,9.334,0,0,0,4.949-1.892,16.164,16.164,0,0,0,4.213-4.97c.588-1,1.064-2.032,1.591-2.982a10.934,10.934,0,0,1,1.812-2.527A5.629,5.629,0,0,1,28.4,3.94a4.02,4.02,0,0,1,1.249-.158,4.4,4.4,0,0,1,1.148.207A4.767,4.767,0,0,1,33.468,6.2a5.662,5.662,0,0,1,.439,1.23.248.248,0,0,0-.007-.086c-.011-.069-.025-.151-.041-.252a4.146,4.146,0,0,0-.324-.926A4.676,4.676,0,0,0,32.6,4.924,4.811,4.811,0,0,0,30.84,3.86a4.52,4.52,0,0,0-1.185-.226,4.152,4.152,0,0,0-1.3.154,5.752,5.752,0,0,0-2.437,1.494,10.993,10.993,0,0,0-1.851,2.563c-.534.957-1.011,1.982-1.593,2.977a16.168,16.168,0,0,1-4.153,4.923,9.279,9.279,0,0,1-4.853,1.9,7.411,7.411,0,0,1-3.492-.527,11.678,11.678,0,0,1-1.16-.612" transform="translate(-2.303 -0.949)" fill="#455a64"/>
                  <path id="Path_99295" data-name="Path 99295" d="M7.746,16.167a1.273,1.273,0,0,0,.3.2,6.377,6.377,0,0,0,.879.434,8.524,8.524,0,0,0,1.39.439,9.725,9.725,0,0,0,1.773.214,9.765,9.765,0,0,0,1.781-.141,8.547,8.547,0,0,0,1.407-.381,6.379,6.379,0,0,0,.9-.4,1.311,1.311,0,0,0,.306-.19c-.017-.033-.469.207-1.246.459a9.743,9.743,0,0,1-1.393.335,10.638,10.638,0,0,1-1.747.124,10.526,10.526,0,0,1-1.74-.2,9.684,9.684,0,0,1-1.378-.392c-.767-.284-1.209-.542-1.226-.51" transform="translate(-2.023 -4.222)" fill="#455a64"/>
                </g>
              </g>
              <path id="Path_99236" data-name="Path 99236" d="M22.375,85.561l-5.532,30.828a6.032,6.032,0,0,0,1.86,7.867c.021.014,3.341,2.675,3.363,2.688,5.506,3.481,12.12-4.153,13.33-10.554L30.865,92.942l-.976-7.38Z" transform="translate(-0.241 -1.564)" fill="#ffc09d"/>
              <path id="Path_99239" data-name="Path 99239" d="M35.794,76.57a14.244,14.244,0,0,1,1.98.627,19.827,19.827,0,0,1,1.953.713,9.264,9.264,0,0,1-2-.549,11.379,11.379,0,0,1-1.929-.791" transform="translate(-0.63 -1.347)" fill="#ff9b6c"/>
              <g id="Group_133960" data-name="Group 133960" transform="translate(41.274 142.588)">
                <g id="Group_133959" data-name="Group 133959" clip-path="url(#clip-path-8)">
                  <g id="Group_133958" data-name="Group 133958">
                    <g id="Group_133957" data-name="Group 133957" clip-path="url(#clip-path-8)">
                      <path id="Path_99299" data-name="Path 99299" d="M15.683,185.47l.6,16.033s-16.094,6-16.27,8.973l31.129-.056L31.23,185.4Z" transform="translate(-0.005 -49.327)" fill="#455a64"/>
                      <path id="Path_99300" data-name="Path 99300" d="M34.747,205.461a1.272,1.272,0,0,1,.881,1.45,1.222,1.222,0,0,1-1.429.886,1.341,1.341,0,0,1-.925-1.54,1.268,1.268,0,0,1,1.588-.757" transform="translate(-8.841 -54.65)" fill="#e0e0e0"/>
                      <path id="Path_99301" data-name="Path 99301" d="M31.142,218.576l-.09-2.523-29.813,1s-1.385.605-1.226,1.582Z" transform="translate(0 -57.482)" fill="#263238"/>
                      <path id="Path_99302" data-name="Path 99302" d="M21.5,207.075c.005.152.766.219,1.514.707.762.468,1.149,1.126,1.288,1.065.14-.029-.088-.938-1.006-1.512s-1.83-.4-1.8-.26" transform="translate(-5.719 -55.056)" fill="#fff"/>
                      <path id="Path_99303" data-name="Path 99303" d="M17.053,208.952c-.034.148.624.4,1.142,1.047.536.627.667,1.322.819,1.314.142.024.246-.867-.412-1.652s-1.546-.854-1.549-.709" transform="translate(-4.537 -55.576)" fill="#fff"/>
                      <path id="Path_99304" data-name="Path 99304" d="M14.093,213.353c.138.032.349-.728-.043-1.56s-1.1-1.162-1.168-1.035c-.086.125.377.571.688,1.259.327.68.372,1.321.523,1.336" transform="translate(-3.425 -56.067)" fill="#fff"/>
                      <path id="Path_99305" data-name="Path 99305" d="M21.86,201.928c.064.139.761-.073,1.621-.015.86.039,1.53.327,1.608.2.088-.11-.566-.672-1.579-.724s-1.725.425-1.65.544" transform="translate(-5.815 -53.578)" fill="#fff"/>
                      <path id="Path_99306" data-name="Path 99306" d="M71.182,186.849l.865,19.392-3.739,15.535a1.989,1.989,0,0,0,3.336,1.875c2.9-2.9,13.226-13.786,13.27-14.823.07-1.647.548-20.751.548-20.751Z" transform="translate(-18.159 -49.712)" fill="#455a64"/>
                      <path id="Path_99307" data-name="Path 99307" d="M70.509,231.61l15.079-16.918.018.822a3.133,3.133,0,0,1-.668,1.956c-1.2,1.474-4.605,5.474-12.635,13.589a1.988,1.988,0,0,1-1.794.551" transform="translate(-18.759 -57.12)" fill="#263238"/>
                      <g id="Group_133956" data-name="Group 133956" transform="translate(62.239 151.196)" opacity="0.6">
                        <g id="Group_133955" data-name="Group 133955">
                          <g id="Group_133954" data-name="Group 133954" clip-path="url(#clip-path-10)">
                            <path id="Path_99308" data-name="Path 99308" d="M85.272,206.207a1.2,1.2,0,0,0-.3,1.578,1.156,1.156,0,0,0,1.562.307,1.271,1.271,0,0,0,.3-1.673,1.2,1.2,0,0,0-1.66-.138" transform="translate(-84.8 -206.005)" fill="#fff"/>
                          </g>
                        </g>
                      </g>
                      <path id="Path_99309" data-name="Path 99309" d="M74.86,225.276a6.046,6.046,0,0,0-1.734-1.472,6.083,6.083,0,0,0-2.244-.379c-.018-.047.225-.2.677-.277a3.169,3.169,0,0,1,3.077,1.432c.235.393.272.68.224.7" transform="translate(-18.858 -59.361)" fill="#fff"/>
                      <path id="Path_99310" data-name="Path 99310" d="M73.175,229.16a16.18,16.18,0,0,0-1.737-.8,16.25,16.25,0,0,0-1.9-.2,2.206,2.206,0,0,1,2.014-.208c1.149.31,1.724,1.154,1.623,1.208" transform="translate(-18.5 -60.617)" fill="#fff"/>
                      <path id="Path_99311" data-name="Path 99311" d="M77.718,220.653a19.738,19.738,0,0,0-2.6-1.411,19.872,19.872,0,0,0-2.893-.608,5.437,5.437,0,0,1,5.491,2.02" transform="translate(-19.217 -58.125)" fill="#fff"/>
                      <path id="Path_99312" data-name="Path 99312" d="M78.185,213.109c-.049.117-1.131-.308-2.527-.327-1.4-.039-2.495.339-2.539.219a4.936,4.936,0,0,1,5.066.108" transform="translate(-19.453 -56.498)" fill="#fff"/>
                      <path id="Path_99313" data-name="Path 99313" d="M77.994,205.313a9.74,9.74,0,0,0-2.622-.411,9.723,9.723,0,0,0-2.559.7c-.033-.04.174-.288.616-.556a4.336,4.336,0,0,1,3.891-.219c.469.217.7.44.674.484" transform="translate(-19.371 -54.401)" fill="#fff"/>
                      <path id="Path_99314" data-name="Path 99314" d="M75.186,202.186a1.674,1.674,0,0,1-.043-.734,5.1,5.1,0,0,1,.542-1.935,2.259,2.259,0,0,1,.947-1.1.8.8,0,0,1,.9.159,1.3,1.3,0,0,1,.326.87,2.811,2.811,0,0,1-2.407,2.653,3.26,3.26,0,0,1-3.239-1.635,1.133,1.133,0,0,1-.074-.94.785.785,0,0,1,.811-.433,2.794,2.794,0,0,1,1.293.637,5.692,5.692,0,0,1,1.357,1.479,1.733,1.733,0,0,1,.313.664,9.056,9.056,0,0,0-1.847-1.9,2.6,2.6,0,0,0-1.141-.528.419.419,0,0,0-.444.233.775.775,0,0,0,.085.614,2.91,2.91,0,0,0,2.824,1.386,2.441,2.441,0,0,0,2.076-2.224.943.943,0,0,0-.2-.617.433.433,0,0,0-.5-.095,2.046,2.046,0,0,0-.818.917,7.543,7.543,0,0,0-.765,2.527" transform="translate(-19.175 -52.77)" fill="#fff"/>
                      <path id="Path_99315" data-name="Path 99315" d="M9.764,2.741A38.158,38.158,0,0,0,5.081,22.186c.148,4.318,9.623,124,9.623,124l19.61.832L33.547,34.878l1.591.417s8.68,48.183,9.226,55.949c.49,6.979,7.378,57.824,7.378,57.824l17.858-.491L66.769,83.044,62.821,18.715,59.347.512Z" transform="translate(-1.341 0.035)" fill="#263238"/>
                      <path id="Path_99316" data-name="Path 99316" d="M45.294,26.33a3.762,3.762,0,0,1-.837.426,9.448,9.448,0,0,1-2.465.747,5.117,5.117,0,0,1-1.808-.064,3.721,3.721,0,0,1-1.851-.987A4.5,4.5,0,0,1,37.273,24.4c-.2-.771-.3-1.569-.425-2.381-.489-3.257-.787-6.224-.943-8.375-.079-1.075-.123-1.946-.142-2.55a4.087,4.087,0,0,1,.015-.939,4.087,4.087,0,0,1,.146.927c.075.686.166,1.533.274,2.535.23,2.14.575,5.093,1.061,8.34.249,1.605.4,3.236,1.35,4.228a4.074,4.074,0,0,0,3.348,1.025,11.051,11.051,0,0,0,2.44-.606,4.395,4.395,0,0,1,.9-.276" transform="translate(-9.512 -2.702)" fill="#455a64"/>
                      <path id="Path_99317" data-name="Path 99317" d="M41.049,11.135c-.006-.018.131-.1.408-.1a1.752,1.752,0,0,1,1.083.4,1.962,1.962,0,0,1,.762,1.55,1.946,1.946,0,0,1-3.363,1.1,1.96,1.96,0,0,1-.3-1.7,1.756,1.756,0,0,1,.636-.962c.227-.159.383-.177.39-.159a2.209,2.209,0,0,0-.74,1.188,1.713,1.713,0,0,0,.314,1.392,1.591,1.591,0,0,0,2.683-.879,1.718,1.718,0,0,0-.57-1.308,2.216,2.216,0,0,0-1.3-.52" transform="translate(-10.526 -2.935)" fill="#455a64"/>
                      <path id="Path_99318" data-name="Path 99318" d="M78.057,21.414a2.13,2.13,0,0,1-.672.076,12.541,12.541,0,0,1-1.84-.057,17.827,17.827,0,0,1-10.814-5.1,12.644,12.644,0,0,1-1.213-1.384,2.153,2.153,0,0,1-.368-.567c.058-.046.657.7,1.785,1.739a20.214,20.214,0,0,0,4.941,3.323,20.223,20.223,0,0,0,5.7,1.7c1.519.211,2.477.2,2.478.272" transform="translate(-16.801 -3.825)" fill="#455a64"/>
                      <path id="Path_99319" data-name="Path 99319" d="M14.9,10.7a8.413,8.413,0,0,1-1.1,1.957,22.484,22.484,0,0,1-3.581,4.074,22.477,22.477,0,0,1-4.452,3.1,8.4,8.4,0,0,1-2.068.876,20.838,20.838,0,0,1,1.924-1.132,28.11,28.11,0,0,0,4.319-3.153,28.144,28.144,0,0,0,3.619-3.936A20.88,20.88,0,0,1,14.9,10.7" transform="translate(-0.982 -2.847)" fill="#455a64"/>
                    </g>
                  </g>
                </g>
              </g>
              <g id="Group_133964" data-name="Group 133964" transform="translate(27.881 61.254)">
                <g id="Group_133961" data-name="Group 133961" clip-path="url(#clip-path-11)">
                  <path id="Path_99321" data-name="Path 99321" d="M73.974,120.71a1.9,1.9,0,0,1-.4.189l-1.17.472c-1.015.41-2.508.946-4.369,1.555s-4.1,1.261-6.615,1.892c-2.517.611-5.307,1.2-8.26,1.666s-5.792.755-8.376.944c-2.585.169-4.919.241-6.878.225s-3.543-.064-4.635-.142l-1.258-.092a1.9,1.9,0,0,1-.437-.058,1.9,1.9,0,0,1,.441-.018l1.26.02c1.092.033,2.675.046,4.627.021s4.278-.118,6.854-.305c2.573-.208,5.4-.515,8.342-.971s5.724-1.041,8.236-1.631c2.509-.61,4.752-1.227,6.617-1.808s3.369-1.071,4.4-1.438l1.193-.405a1.893,1.893,0,0,1,.425-.117" transform="translate(-8.233 -31.469)" fill="#263238"/>
                  <path id="Path_99322" data-name="Path 99322" d="M31.315,14.38,47.5,9.058s-.083,4.355,6.213,4.493c7.252.159,13.338-6.217,13.338-6.217s15.076,4.7,18.242,7.251-7.179,55.891-7.179,55.891l-.939,15.885a11.779,11.779,0,0,1,1.555,5.328c0,2.757.1,4.6.1,4.6-19.329,5.831-38.511,10.879-56.16,5.236,0,0,.44-9.371,1.461-11.925s.832-2.788.832-2.788l1.682-29.33.307-22.059Z" transform="translate(-5.912 -1.912)" fill="#769eb2"/>
                  <path id="Path_99323" data-name="Path 99323" d="M103.412,17.11a16.487,16.487,0,0,1,6.093,9.878c1.326,6.634,4.225,45.053,4.225,45.053L95.29,71.375s-3.7-31.778-3.7-32.5,3.994-16.521,4.235-16.883,7.59-4.88,7.59-4.88" transform="translate(-23.878 -4.461)" fill="#769eb2"/>
                  <path id="Path_99324" data-name="Path 99324" d="M100.711,17.613a34.965,34.965,0,0,0-3.3,2.595,34.889,34.889,0,0,0-2.681,3.234,9.022,9.022,0,0,1,2.415-3.506,9.019,9.019,0,0,1,3.569-2.323" transform="translate(-24.694 -4.59)" fill="#263238"/>
                  <path id="Path_99325" data-name="Path 99325" d="M112.594,91.2l-.016,4.589c-.013,3.4-7.4,38.957-7.4,38.957l-10.985-3.7L98.05,96.487l.166-5.812Z" transform="translate(-24.556 -23.64)" fill="#ffc09d"/>
                  <path id="Path_99326" data-name="Path 99326" d="M90.223,147.41s-4.391,3.313-5.353,4.621-3.342,5.976-5.118,7.335a1.341,1.341,0,0,0,2.122.91,15.149,15.149,0,0,0,4.628-4.023c.75-1.138,1.53-.47,1.575.523s-.809,7.716-.809,7.716-2.1,7.476-1.533,8.313a1.363,1.363,0,0,0,2.135.1c.286-.392,2.652-6.639,2.652-6.639l.608-3.4s-1.221,10.762-.538,11.605a1.175,1.175,0,0,0,1.889.087c.471-.429.962-5.184.962-5.184l1.106-6.351-.2,12.1s.127,1.146,1.027,1.188,1.5-1.283,1.5-1.283l1.3-12.472s-.418,6.934.047,7.3c.622.485,1.192.325,1.4-.206a68.2,68.2,0,0,0,1.025-7.316l.572-11.872.61-5.72-11.108-.726Z" transform="translate(-20.792 -37.547)" fill="#ffc09d"/>
                  <path id="Path_99327" data-name="Path 99327" d="M51.37,10.025c.233-1.618,2.43-6.41,2.43-6.41l4.315,5.571L73.4,0l3.754,6.267L65.113,14.6l-6.085-.952-4.721-.863Z" transform="translate(-13.392 0)" fill="#769eb2"/>
                  <path id="Path_99328" data-name="Path 99328" d="M91.667,44.167c.108-.01.781,5.916,1.5,13.236s1.219,13.265,1.111,13.275-.78-5.914-1.5-13.237-1.22-13.264-1.112-13.275" transform="translate(-23.894 -11.515)" fill="#263238"/>
                  <path id="Path_99329" data-name="Path 99329" d="M114.478,88.1a1.966,1.966,0,0,1-.451.043c-.3.018-.733.027-1.3.033-1.125.009-2.753-.028-4.762-.108s-4.4-.206-7.048-.237c-.663-.013-1.335.014-2.046-.009a4.5,4.5,0,0,1-2.134-.529,3.761,3.761,0,0,1-1.479-1.743,9.351,9.351,0,0,1-.633-2.225,8.506,8.506,0,0,1-.152-2.309,4.189,4.189,0,0,1,.237-1.14,1.6,1.6,0,0,1,.316-.53,1.147,1.147,0,0,1,.543-.331,5.026,5.026,0,0,1,1.11-.131l1.055-.054,2.043-.07c2.66-.065,5.055-.041,7.064-.017l4.759.082,1.294.034a2,2,0,0,1,.451.038,1.866,1.866,0,0,1-.45.041l-1.295.039-4.76.043c-2.009.013-4.4.016-7.053.1l-2.035.084-1.05.058a4.826,4.826,0,0,0-1.019.118c-.6.155-.756.977-.821,1.666a8.125,8.125,0,0,0,.149,2.209,9.029,9.029,0,0,0,.6,2.132,3.386,3.386,0,0,0,1.318,1.572c1.2.688,2.674.442,3.988.507,2.664.05,5.052.211,7.057.321s3.628.194,4.751.233l1.292.041a1.97,1.97,0,0,1,.452.036" transform="translate(-24.625 -20.523)" fill="#263238"/>
                  <path id="Path_99330" data-name="Path 99330" d="M27.549,38.325a2.562,2.562,0,0,1,.013.518c-.01.379-.023.87-.039,1.481-.048,1.332-.115,3.18-.2,5.444-.167,4.6-.373,10.947-.507,17.963S26.651,77.1,26.644,81.7c-.005,2.265-.009,4.115-.012,5.448-.007.611-.012,1.1-.016,1.482a2.58,2.58,0,0,1-.033.517,2.625,2.625,0,0,1-.047-.516c-.015-.379-.033-.869-.057-1.481-.043-1.286-.082-3.147-.113-5.448-.064-4.6-.072-10.959.061-17.981s.384-13.372.622-17.968c.119-2.3.229-4.156.32-5.44.047-.609.084-1.1.113-1.477a2.565,2.565,0,0,1,.067-.514" transform="translate(-6.862 -9.992)" fill="#263238"/>
                  <path id="Path_99333" data-name="Path 99333" d="M77.043,8.482a1.6,1.6,0,0,1-.292.276c-.2.17-.495.424-.886.735-.778.629-1.93,1.513-3.4,2.554A84.988,84.988,0,0,1,60.288,19.22l-.152.073-.092-.14c-.189-.286-.389-.6-.573-.917a17.283,17.283,0,0,1-1.958-5.051l.367-.024a9.927,9.927,0,0,1-1.291,3.294c-.549.974-1.119,1.865-1.693,2.681l-.176.249-.1-.286-2.179-6.152-.583-1.716a3.259,3.259,0,0,1-.174-.615,3.219,3.219,0,0,1,.264.583l.662,1.686c.572,1.513,1.36,3.6,2.307,6.105l-.277-.037c.555-.81,1.113-1.7,1.645-2.667a9.794,9.794,0,0,0,1.226-3.158l.139-1.062.228,1.039A17.139,17.139,0,0,0,59.8,18.042c.18.315.376.617.56.9l-.243-.067a94.4,94.4,0,0,0,12.2-7.044c1.482-1.01,2.654-1.859,3.458-2.451L76.7,8.7a1.625,1.625,0,0,1,.339-.217" transform="translate(-13.474 -2.211)" fill="#263238"/>
                  <path id="Path_99334" data-name="Path 99334" d="M55.854,107.058a.9.9,0,0,1-.013-.218c0-.166,0-.376,0-.639.011-.588.027-1.411.047-2.455.059-2.159.143-5.237.246-9.028.245-7.646.583-18.162.957-29.779.417-11.619.795-22.135,1.069-29.779.155-3.789.28-6.864.368-9.023.051-1.044.091-1.864.12-2.453.017-.262.03-.472.041-.637a.933.933,0,0,1,.027-.217.946.946,0,0,1,.013.217c0,.166,0,.376,0,.639-.011.589-.027,1.411-.047,2.455-.059,2.159-.143,5.236-.246,9.027-.245,7.646-.583,18.164-.957,29.785-.417,11.615-.795,22.131-1.069,29.775-.155,3.789-.28,6.865-.368,9.024-.051,1.044-.091,1.865-.12,2.453-.017.262-.03.472-.041.637a.944.944,0,0,1-.027.217" transform="translate(-14.558 -5.952)" fill="#263238"/>
                </g>
              </g>
              <g transform="matrix(1, 0, 0, 1, -106.44, -54.28)" filter="url(#Path_99237)">
                <path id="Path_99237-2" data-name="Path 99237" d="M77.251,0a48.871,48.871,0,1,0,48.871,48.872A48.871,48.871,0,0,0,77.251,0m0,92.254a43.382,43.382,0,1,1,43.382-43.382A43.382,43.382,0,0,1,77.251,92.254" transform="translate(105.94 54.28)" fill="#005e81"/>
              </g>
              <path id="Path_99238" data-name="Path 99238" d="M25.521,79.057S29.662,68.452,30.257,67.9s6.72-5.51,6.72-5.51a3.362,3.362,0,0,1,1.879.248A17.614,17.614,0,0,1,41.5,66.116a1.078,1.078,0,0,1,.132.843l-.663,2.1a3.532,3.532,0,0,1,.609,2.091,5.883,5.883,0,0,1-.658,1.637A3.315,3.315,0,0,1,41.2,75.25a3.382,3.382,0,0,1-1.683,1.775s-.467,2.175-.531,2.6-2.313,1.407-2.546,1.345-1.872-.738-1.872-.738-.754,3.557-1.7,4.352a4.957,4.957,0,0,1-2.19.979L30.087,92.3l-7.871-7.065Z" transform="translate(-0.391 -1.097)" fill="#ffc09d"/>
              <path id="Path_99242" data-name="Path 99242" d="M39.638,68.83a3.21,3.21,0,0,1-.179-1.612,1.631,1.631,0,0,1-1.332-.477c-.382.484-.9,1.153-1.279,1.638Z" transform="translate(-0.648 -1.174)" fill="#005e81"/>
              <path id="Path_99241" data-name="Path 99241" d="M35.049,68.291a3.884,3.884,0,0,1,.9-.025,15.482,15.482,0,0,1,4.283.787,3.937,3.937,0,0,1,.842.345,5.98,5.98,0,0,1-.874-.228c-.535-.149-1.28-.339-2.112-.492s-1.594-.24-2.147-.29a6.037,6.037,0,0,1-.9-.1" transform="translate(-0.617 -1.201)" fill="#ff9b6c"/>
              <path id="Path_99240" data-name="Path 99240" d="M35.854,71.922a3.644,3.644,0,0,1,.814.113c.5.1,1.184.252,1.932.459s1.418.424,1.9.6a3.684,3.684,0,0,1,.762.322,4.255,4.255,0,0,1-.8-.205c-.487-.143-1.158-.343-1.9-.549s-1.424-.379-1.915-.5a4.228,4.228,0,0,1-.79-.233" transform="translate(-0.631 -1.266)" fill="#ff9b6c"/>
            </g>
          </g>
        </g>
      </g>
    </g>
  </g>
</svg>
