<svg width="542" height="362" viewBox="0 0 542 362" fill="none" xmlns="http://www.w3.org/2000/svg">
<path d="M153.46 332.36C153.487 331.267 153.373 330.233 153.12 329.26C152.867 328.273 152.4 327.473 151.72 326.86C151.053 326.247 150.113 325.94 148.9 325.94C147.127 325.94 145.853 326.753 145.08 328.38C144.307 330.007 143.92 332.373 143.92 335.48C143.92 338.387 144.413 340.58 145.4 342.06C146.387 343.527 147.773 344.26 149.56 344.26C150.92 344.26 152.16 343.973 153.28 343.4C154.413 342.813 155.46 342.16 156.42 341.44C157.02 341.84 157.6 342.42 158.16 343.18C158.733 343.927 159.093 344.66 159.24 345.38C158.467 346.127 157.52 346.82 156.4 347.46C155.28 348.1 154.04 348.613 152.68 349C151.32 349.387 149.913 349.58 148.46 349.58C146.38 349.58 144.633 349.173 143.22 348.36C141.82 347.547 140.7 346.46 139.86 345.1C139.02 343.74 138.42 342.227 138.06 340.56C137.7 338.88 137.52 337.173 137.52 335.44C137.52 332.093 138.047 329.36 139.1 327.24C140.153 325.12 141.553 323.56 143.3 322.56C145.06 321.56 146.993 321.06 149.1 321.06C151.153 321.06 152.94 321.433 154.46 322.18C155.993 322.913 157.18 323.907 158.02 325.16C158.86 326.4 159.28 327.787 159.28 329.32C159.28 330.493 158.973 331.353 158.36 331.9C157.76 332.433 156.907 332.7 155.8 332.7C155.36 332.7 154.953 332.667 154.58 332.6C154.22 332.533 153.847 332.453 153.46 332.36ZM168.796 345C168.583 345 168.356 345 168.116 345C167.889 344.987 167.669 344.973 167.456 344.96L166.136 349C165.763 349.093 165.356 349.16 164.916 349.2C164.489 349.24 164.043 349.26 163.576 349.26C163.056 349.26 162.536 349.22 162.016 349.14C161.509 349.073 161.096 348.967 160.776 348.82L160.556 348.5L168.376 326.98C169.016 326.887 169.643 326.827 170.256 326.8C170.883 326.773 171.456 326.76 171.976 326.76C172.443 326.76 172.949 326.773 173.496 326.8C174.056 326.827 174.676 326.887 175.356 326.98L182.956 348.72C182.503 348.92 181.936 349.073 181.256 349.18C180.576 349.287 180.023 349.34 179.596 349.34C178.889 349.34 178.209 349.207 177.556 348.94C176.916 348.66 176.429 347.953 176.096 346.82L175.516 344.96C175.289 344.973 175.056 344.987 174.816 345C174.589 345 174.369 345 174.156 345H168.796ZM169.576 338.46L168.976 340.28C169.189 340.267 169.403 340.26 169.616 340.26C169.843 340.247 170.063 340.24 170.276 340.24H172.876C173.076 340.24 173.269 340.247 173.456 340.26C173.643 340.26 173.829 340.26 174.016 340.26L173.476 338.58C173.169 337.553 172.856 336.4 172.536 335.12C172.229 333.84 171.943 332.68 171.676 331.64H171.456C171.189 332.64 170.883 333.78 170.536 335.06C170.203 336.327 169.883 337.46 169.576 338.46ZM203.868 333.66C203.868 334.66 203.634 335.567 203.168 336.38C202.714 337.18 202.134 337.84 201.428 338.36C200.734 338.867 200.028 339.2 199.308 339.36C200.014 339.613 200.601 339.98 201.068 340.46C201.548 340.94 201.954 341.567 202.288 342.34L203.387 344.86C203.627 345.393 203.901 345.893 204.207 346.36C204.514 346.813 204.848 347.2 205.208 347.52C204.834 347.987 204.274 348.413 203.528 348.8C202.794 349.173 201.994 349.36 201.128 349.36C200.261 349.36 199.568 349.153 199.048 348.74C198.528 348.313 198.061 347.633 197.648 346.7L195.868 342.62C195.574 341.953 195.214 341.533 194.788 341.36C194.374 341.187 193.821 341.1 193.128 341.1H192.108V349C191.601 349.093 191.074 349.153 190.528 349.18C189.994 349.207 189.534 349.22 189.148 349.22C188.788 349.22 188.314 349.207 187.728 349.18C187.141 349.153 186.608 349.093 186.127 349V327.18L186.368 326.94C187.941 326.9 189.428 326.867 190.828 326.84C192.228 326.813 193.621 326.8 195.008 326.8C196.621 326.8 198.094 327.013 199.428 327.44C200.774 327.867 201.848 328.58 202.648 329.58C203.461 330.58 203.868 331.94 203.868 333.66ZM192.108 331.14V336.56C192.601 336.547 193.061 336.54 193.488 336.54C193.928 336.527 194.254 336.52 194.468 336.52C195.734 336.52 196.588 336.247 197.028 335.7C197.481 335.14 197.708 334.5 197.708 333.78C197.708 333.087 197.481 332.48 197.028 331.96C196.588 331.44 195.821 331.18 194.728 331.18C194.248 331.18 193.814 331.173 193.428 331.16C193.041 331.147 192.601 331.14 192.108 331.14ZM226.524 333.66C226.524 334.66 226.29 335.567 225.824 336.38C225.37 337.18 224.79 337.84 224.084 338.36C223.39 338.867 222.684 339.2 221.964 339.36C222.67 339.613 223.257 339.98 223.724 340.46C224.204 340.94 224.61 341.567 224.944 342.34L226.044 344.86C226.284 345.393 226.557 345.893 226.864 346.36C227.17 346.813 227.504 347.2 227.864 347.52C227.49 347.987 226.93 348.413 226.184 348.8C225.45 349.173 224.65 349.36 223.784 349.36C222.917 349.36 222.224 349.153 221.704 348.74C221.184 348.313 220.717 347.633 220.304 346.7L218.524 342.62C218.23 341.953 217.87 341.533 217.444 341.36C217.03 341.187 216.477 341.1 215.784 341.1H214.764V349C214.257 349.093 213.73 349.153 213.184 349.18C212.65 349.207 212.19 349.22 211.804 349.22C211.444 349.22 210.97 349.207 210.384 349.18C209.797 349.153 209.264 349.093 208.784 349V327.18L209.024 326.94C210.597 326.9 212.084 326.867 213.484 326.84C214.884 326.813 216.277 326.8 217.664 326.8C219.277 326.8 220.75 327.013 222.084 327.44C223.43 327.867 224.504 328.58 225.304 329.58C226.117 330.58 226.524 331.94 226.524 333.66ZM214.764 331.14V336.56C215.257 336.547 215.717 336.54 216.144 336.54C216.584 336.527 216.91 336.52 217.124 336.52C218.39 336.52 219.244 336.247 219.684 335.7C220.137 335.14 220.364 334.5 220.364 333.78C220.364 333.087 220.137 332.48 219.684 331.96C219.244 331.44 218.477 331.18 217.384 331.18C216.904 331.18 216.47 331.173 216.084 331.16C215.697 331.147 215.257 331.14 214.764 331.14ZM248.04 344.2C248.04 346.027 247.753 347.293 247.18 348C246.607 348.707 245.647 349.06 244.3 349.06H234.94C233.86 349.06 233.007 348.753 232.38 348.14C231.753 347.527 231.44 346.693 231.44 345.64V327.22L231.68 326.98H247.3C247.393 327.42 247.447 327.84 247.46 328.24C247.473 328.64 247.48 329.013 247.48 329.36C247.48 329.693 247.44 330.08 247.36 330.52C247.293 330.96 247.18 331.4 247.02 331.84H239.86C239.287 331.84 238.453 331.833 237.36 331.82C237.36 332.22 237.367 332.573 237.38 332.88C237.393 333.173 237.4 333.527 237.4 333.94V335.58C238.48 335.553 239.3 335.54 239.86 335.54H245.16C245.28 335.9 245.36 336.3 245.4 336.74C245.453 337.18 245.48 337.553 245.48 337.86C245.48 338.207 245.453 338.607 245.4 339.06C245.36 339.5 245.28 339.893 245.16 340.24H239.86C239.62 340.24 239.273 340.24 238.82 340.24C238.367 340.24 237.893 340.24 237.4 340.24V341.94C237.4 342.407 237.393 342.8 237.38 343.12C237.367 343.44 237.36 343.827 237.36 344.28V344.32C237.813 344.28 238.233 344.253 238.62 344.24C239.02 344.213 239.507 344.2 240.08 344.2H248.04ZM265.123 343.1C265.123 342.42 265.136 341.753 265.163 341.1C264.883 341.1 264.603 341.1 264.323 341.1C264.043 341.1 263.77 341.1 263.503 341.1C261.703 341.1 260.803 340.253 260.803 338.56C260.803 338.227 260.83 337.833 260.883 337.38C260.95 336.913 261.023 336.553 261.103 336.3C262.063 336.26 263.01 336.24 263.943 336.24C264.876 336.227 265.823 336.22 266.783 336.22C268.29 336.22 269.316 336.507 269.863 337.08C270.41 337.64 270.683 338.44 270.683 339.48V348.28C269.976 348.52 269.083 348.74 268.003 348.94C266.936 349.127 265.823 349.28 264.663 349.4C263.503 349.52 262.443 349.58 261.483 349.58C258.843 349.58 256.716 349.093 255.103 348.12C253.503 347.133 252.336 345.793 251.603 344.1C250.883 342.393 250.523 340.467 250.523 338.32C250.523 335.48 251.05 333.187 252.103 331.44C253.156 329.693 254.55 328.42 256.283 327.62C258.03 326.807 259.93 326.4 261.983 326.4C263.53 326.4 265.03 326.56 266.483 326.88C267.936 327.2 269.223 327.633 270.343 328.18C270.263 329.007 270.003 329.867 269.563 330.76C269.136 331.653 268.65 332.333 268.103 332.8C266.09 331.76 264.136 331.24 262.243 331.24C258.536 331.24 256.683 333.58 256.683 338.26C256.683 340.58 257.156 342.3 258.103 343.42C259.063 344.54 260.523 345.1 262.483 345.1C262.936 345.1 263.383 345.08 263.823 345.04C264.263 344.987 264.696 344.927 265.123 344.86V343.1ZM281.062 345C280.848 345 280.622 345 280.382 345C280.155 344.987 279.935 344.973 279.722 344.96L278.402 349C278.028 349.093 277.622 349.16 277.182 349.2C276.755 349.24 276.308 349.26 275.842 349.26C275.322 349.26 274.802 349.22 274.282 349.14C273.775 349.073 273.362 348.967 273.042 348.82L272.822 348.5L280.642 326.98C281.282 326.887 281.908 326.827 282.522 326.8C283.148 326.773 283.722 326.76 284.242 326.76C284.708 326.76 285.215 326.773 285.762 326.8C286.322 326.827 286.942 326.887 287.622 326.98L295.222 348.72C294.768 348.92 294.202 349.073 293.522 349.18C292.842 349.287 292.288 349.34 291.862 349.34C291.155 349.34 290.475 349.207 289.822 348.94C289.182 348.66 288.695 347.953 288.362 346.82L287.782 344.96C287.555 344.973 287.322 344.987 287.082 345C286.855 345 286.635 345 286.422 345H281.062ZM281.842 338.46L281.242 340.28C281.455 340.267 281.668 340.26 281.882 340.26C282.108 340.247 282.328 340.24 282.542 340.24H285.142C285.342 340.24 285.535 340.247 285.722 340.26C285.908 340.26 286.095 340.26 286.282 340.26L285.742 338.58C285.435 337.553 285.122 336.4 284.802 335.12C284.495 333.84 284.208 332.68 283.942 331.64H283.722C283.455 332.64 283.148 333.78 282.802 335.06C282.468 336.327 282.148 337.46 281.842 338.46ZM305.953 338.62C305.806 338.327 305.586 337.847 305.293 337.18C305 336.5 304.706 335.82 304.413 335.14C304.12 334.46 303.906 333.967 303.773 333.66L303.613 333.72C303.666 334.747 303.72 335.853 303.773 337.04C303.826 338.227 303.866 339.32 303.893 340.32C303.933 341.307 303.953 342.027 303.953 342.48V349C303.46 349.093 302.98 349.153 302.513 349.18C302.046 349.207 301.62 349.22 301.233 349.22C300.86 349.22 300.413 349.207 299.893 349.18C299.373 349.153 298.873 349.093 298.393 349V327.12C298.873 327.013 299.46 326.927 300.153 326.86C300.846 326.793 301.393 326.76 301.793 326.76C302.193 326.76 302.746 326.773 303.453 326.8C304.173 326.813 304.773 326.873 305.253 326.98L310.273 337.34C310.393 337.54 310.56 337.88 310.773 338.36C310.986 338.84 311.22 339.367 311.473 339.94C311.726 340.513 311.96 341.053 312.173 341.56C312.4 342.053 312.566 342.42 312.673 342.66L312.853 342.62C312.8 341.753 312.726 340.753 312.633 339.62C312.553 338.473 312.48 337.367 312.413 336.3C312.36 335.22 312.333 334.353 312.333 333.7V330.04C312.333 328.693 312.62 327.807 313.193 327.38C313.766 326.94 314.633 326.72 315.793 326.72H317.793L318.013 327V348.9C317.52 349.007 316.926 349.087 316.233 349.14C315.54 349.193 315 349.22 314.613 349.22C314.226 349.22 313.653 349.207 312.893 349.18C312.133 349.167 311.52 349.107 311.053 349L305.953 338.62ZM343.741 338.04C343.741 341.747 342.874 344.527 341.141 346.38C339.421 348.233 336.694 349.16 332.961 349.16C331.388 349.16 329.914 349.147 328.541 349.12C327.168 349.107 325.701 349.08 324.141 349.04L323.901 348.8V327.18L324.141 326.94C325.701 326.9 327.168 326.867 328.541 326.84C329.914 326.813 331.388 326.8 332.961 326.8C336.668 326.8 339.388 327.76 341.121 329.68C342.868 331.6 343.741 334.387 343.741 338.04ZM337.621 338.04C337.621 337.04 337.508 336.033 337.281 335.02C337.068 334.007 336.628 333.16 335.961 332.48C335.294 331.787 334.288 331.44 332.941 331.44C332.341 331.44 331.821 331.44 331.381 331.44C330.941 331.44 330.441 331.427 329.881 331.4V344.58C330.468 344.58 330.974 344.573 331.401 344.56C331.828 344.547 332.341 344.54 332.941 344.54C334.288 344.54 335.294 344.207 335.961 343.54C336.628 342.86 337.068 342.02 337.281 341.02C337.508 340.007 337.621 339.013 337.621 338.04ZM346.402 338.02C346.402 334.473 347.315 331.653 349.142 329.56C350.982 327.453 353.655 326.4 357.162 326.4C360.735 326.4 363.428 327.447 365.242 329.54C367.068 331.633 367.982 334.46 367.982 338.02C367.982 341.607 367.068 344.433 365.242 346.5C363.415 348.553 360.722 349.58 357.162 349.58C353.602 349.58 350.915 348.54 349.102 346.46C347.302 344.38 346.402 341.567 346.402 338.02ZM352.582 338.02C352.582 338.807 352.635 339.613 352.742 340.44C352.848 341.267 353.062 342.04 353.382 342.76C353.702 343.467 354.168 344.04 354.782 344.48C355.395 344.92 356.202 345.14 357.202 345.14C358.202 345.14 359.008 344.92 359.622 344.48C360.235 344.04 360.695 343.467 361.002 342.76C361.322 342.04 361.535 341.267 361.642 340.44C361.748 339.613 361.802 338.807 361.802 338.02C361.802 337.233 361.748 336.42 361.642 335.58C361.535 334.74 361.322 333.967 361.002 333.26C360.695 332.54 360.235 331.96 359.622 331.52C359.008 331.067 358.202 330.84 357.202 330.84C356.202 330.84 355.395 331.067 354.782 331.52C354.168 331.96 353.702 332.54 353.382 333.26C353.062 333.967 352.848 334.74 352.742 335.58C352.635 336.42 352.582 337.233 352.582 338.02ZM370.699 346.36C370.699 346.12 370.732 345.753 370.799 345.26C370.879 344.753 370.999 344.333 371.159 344C371.546 343.773 372.019 343.6 372.579 343.48C373.152 343.347 373.692 343.28 374.199 343.28C374.706 343.28 375.246 343.347 375.819 343.48C376.392 343.6 376.872 343.773 377.259 344C377.419 344.333 377.532 344.753 377.599 345.26C377.666 345.753 377.699 346.12 377.699 346.36C377.699 346.6 377.666 346.967 377.599 347.46C377.532 347.953 377.419 348.373 377.259 348.72C376.872 348.947 376.392 349.12 375.819 349.24C375.246 349.36 374.706 349.42 374.199 349.42C373.692 349.42 373.152 349.36 372.579 349.24C372.019 349.12 371.546 348.947 371.159 348.72C370.999 348.373 370.879 347.953 370.799 347.46C370.732 346.967 370.699 346.6 370.699 346.36ZM382.027 346.36C382.027 346.12 382.061 345.753 382.127 345.26C382.207 344.753 382.327 344.333 382.487 344C382.874 343.773 383.347 343.6 383.907 343.48C384.481 343.347 385.021 343.28 385.527 343.28C386.034 343.28 386.574 343.347 387.147 343.48C387.721 343.6 388.201 343.773 388.587 344C388.747 344.333 388.861 344.753 388.927 345.26C388.994 345.753 389.027 346.12 389.027 346.36C389.027 346.6 388.994 346.967 388.927 347.46C388.861 347.953 388.747 348.373 388.587 348.72C388.201 348.947 387.721 349.12 387.147 349.24C386.574 349.36 386.034 349.42 385.527 349.42C385.021 349.42 384.481 349.36 383.907 349.24C383.347 349.12 382.874 348.947 382.487 348.72C382.327 348.373 382.207 347.953 382.127 347.46C382.061 346.967 382.027 346.6 382.027 346.36ZM393.355 346.36C393.355 346.12 393.389 345.753 393.455 345.26C393.535 344.753 393.655 344.333 393.815 344C394.202 343.773 394.675 343.6 395.235 343.48C395.809 343.347 396.349 343.28 396.855 343.28C397.362 343.28 397.902 343.347 398.475 343.48C399.049 343.6 399.529 343.773 399.915 344C400.075 344.333 400.189 344.753 400.255 345.26C400.322 345.753 400.355 346.12 400.355 346.36C400.355 346.6 400.322 346.967 400.255 347.46C400.189 347.953 400.075 348.373 399.915 348.72C399.529 348.947 399.049 349.12 398.475 349.24C397.902 349.36 397.362 349.42 396.855 349.42C396.349 349.42 395.809 349.36 395.235 349.24C394.675 349.12 394.202 348.947 393.815 348.72C393.655 348.373 393.535 347.953 393.455 347.46C393.389 346.967 393.355 346.6 393.355 346.36Z" fill="#09BFF6"/>
<g clip-path="url(#clip0_83_45)">
<path d="M82.68 254.584C70.6443 263.556 67.2333 279.342 67.2333 279.342C67.2333 279.342 83.3358 280.581 95.3715 271.609C107.407 262.637 110.818 246.852 110.818 246.852C110.818 246.852 94.7156 245.612 82.68 254.584Z" fill="#666762"/>
<path d="M87.6935 258.796C81.9091 272.649 67.4221 279.787 67.4221 279.787C67.4221 279.787 62.3135 264.466 68.098 250.614C73.8824 236.761 88.3693 229.623 88.3693 229.623C88.3693 229.623 93.4779 244.944 87.6935 258.796Z" fill="#666762"/>
<path d="M433.969 218.751C432.69 210.136 432.352 201.409 432.961 192.721L433.969 178.344C428.417 189.391 429.672 203.931 433.969 218.75V218.751Z" fill="#CACACA"/>
<path d="M438.298 221.156C437.683 216.015 437.52 210.831 437.813 205.662L438.298 197.104C435.627 203.68 436.231 212.335 438.298 221.156Z" fill="#CACACA"/>
<path d="M457.542 231.739V236.55C457.54 236.932 457.387 237.298 457.117 237.568C456.847 237.838 456.481 237.991 456.099 237.993H453.693C453.63 237.993 453.567 238.005 453.509 238.029C453.451 238.053 453.397 238.088 453.353 238.133C453.308 238.178 453.273 238.231 453.248 238.289C453.224 238.348 453.212 238.411 453.212 238.474V277.918C453.21 278.3 453.058 278.666 452.787 278.936C452.517 279.207 452.151 279.359 451.769 279.361H422.426C422.044 279.361 421.677 279.209 421.406 278.938C421.136 278.668 420.984 278.301 420.983 277.918V238.474C420.983 238.346 420.932 238.224 420.842 238.134C420.752 238.044 420.63 237.993 420.502 237.993H417.616C417.234 237.992 416.867 237.84 416.596 237.57C416.326 237.299 416.173 236.932 416.173 236.55V231.739C416.173 231.55 416.21 231.362 416.282 231.187C416.355 231.012 416.461 230.852 416.595 230.718C416.729 230.584 416.888 230.478 417.064 230.406C417.239 230.333 417.427 230.296 417.616 230.296H456.099C456.481 230.297 456.847 230.45 457.118 230.72C457.388 230.991 457.54 231.357 457.542 231.739Z" fill="#E0BBD6"/>
<path d="M453.256 239.003H421.027V240.446H453.256V239.003Z" fill="#1F3B57"/>
<path d="M453.212 260.238C442.428 264.701 431.526 264.75 420.502 260.238V250.071C431.114 246.507 442.6 246.507 453.212 250.071V260.238Z" fill="#1F3B57"/>
<path d="M272.565 104.792C296.64 104.792 316.157 85.275 316.157 61.2C316.157 37.125 296.64 17.6084 272.565 17.6084C248.49 17.6084 228.974 37.125 228.974 61.2C228.974 85.275 248.49 104.792 272.565 104.792Z" fill="#FEB8B8"/>
<path d="M313.28 23.5928C306.763 13.0097 296.561 5.21139 284.639 1.69906L279.287 5.60434V0.533454C276.424 0.0952226 273.526 -0.0735966 270.631 0.0292164L266.014 4.20678V0.37629C259.178 1.22577 252.593 3.48244 246.672 7.004C240.752 10.5256 235.625 15.2356 231.616 20.8372C221.589 35.2918 219.897 55.4013 229.758 69.972C232.465 61.6522 235.751 53.8458 238.459 45.5268C240.587 45.8169 242.743 45.8273 244.874 45.5579L248.167 37.8726L249.087 45.2327C259.296 44.3436 274.438 42.3905 284.116 40.6013L283.175 34.9548L288.806 39.6467C291.771 38.9643 293.531 38.3449 293.386 37.8718C300.584 49.4759 309.393 56.8872 316.59 68.4912C319.323 52.1289 322.47 38.5239 313.28 23.5928Z" fill="#2F2E41"/>
<path d="M366.318 173.297C364.819 164.279 363.273 155.088 359.082 146.964C356.327 141.643 351.955 136.572 346.06 135.519C344.899 135.416 343.758 135.152 342.67 134.735C340.942 133.903 317.732 120.653 314.043 118.345C310.876 116.364 305.876 112.696 303.355 112.696C300.819 112.64 291.093 114.904 253.133 111.937C253.133 111.937 242.705 116.047 234.636 121.031C234.514 120.95 195.237 142.042 193.762 141.986C190.967 141.869 188.37 143.658 186.768 145.911C185.166 148.164 184.415 150.953 183.628 153.65C192.207 172.754 200.056 191.883 208.635 210.988C209.037 211.707 209.251 212.517 209.256 213.341C209.084 214.196 208.719 215.001 208.189 215.694C203.981 222.452 204.115 230.953 204.575 238.896C205.035 246.839 205.603 255.23 202.054 262.35C201.088 264.304 199.832 266.093 198.914 268.048C196.763 272.475 195.986 286.635 197.242 291.392L354.618 295.9C351.235 286.599 366.318 173.297 366.318 173.297Z" fill="#09BFF6"/>
<path d="M170.025 211.835C169.711 214.106 169.679 216.408 169.931 218.687L172.186 251.081C172.398 254.134 172.606 257.179 172.893 260.225C173.434 266.135 174.243 271.999 175.246 277.854C175.269 278.685 175.62 279.473 176.224 280.046C176.827 280.618 177.633 280.928 178.464 280.907C188.393 283.008 198.652 282.924 208.785 282.352C224.248 281.488 263.808 279.856 266.225 276.716C268.642 273.576 267.234 268.498 264.082 265.959C260.931 263.42 208.725 257.231 208.725 257.231C209.235 253.188 210.774 249.381 212.234 245.543C214.856 238.736 217.305 231.706 217.352 224.414C217.399 217.122 214.652 209.455 208.678 205.277C203.765 201.848 197.438 201.211 191.45 201.353C187.094 201.478 179.567 200.434 175.587 202.138C172.438 203.524 170.613 208.751 170.025 211.835Z" fill="#FBBEBE"/>
<path d="M183.174 154.231C182.41 155.032 181.817 155.98 181.432 157.018C175.088 171.317 171.34 186.632 170.365 202.244C170.382 203.006 170.207 203.759 169.855 204.434C169.508 204.884 169.122 205.301 168.701 205.682C168.334 206.117 168.057 206.62 167.884 207.162C167.712 207.705 167.648 208.276 167.696 208.843C167.744 209.41 167.903 209.962 168.165 210.467C168.426 210.972 168.784 211.421 169.219 211.788C169.291 211.848 169.364 211.906 169.439 211.962C170.734 209.525 173.834 208.728 176.59 208.516C189.784 207.472 202.672 213.611 215.906 213.147C214.972 209.921 213.629 206.821 212.868 203.556C209.5 189.059 217.899 173.275 212.75 159.311C211.721 156.516 210.003 153.769 207.295 152.545C206.174 152.093 205.001 151.782 203.802 151.62C200.458 151.016 193.802 148.434 190.569 149.47C189.375 149.855 188.905 150.977 187.916 151.655C186.413 152.615 184.42 152.968 183.174 154.231Z" fill="#09BFF6"/>
<path d="M366.413 202.138C362.433 200.434 354.906 201.478 350.55 201.353C344.562 201.211 338.235 201.848 333.322 205.277C327.348 209.455 324.601 217.122 324.648 224.414C324.695 231.706 327.144 238.736 329.766 245.543C331.226 249.381 332.764 253.188 333.275 257.231C333.275 257.231 281.069 263.42 277.918 265.959C274.766 268.498 273.358 273.576 275.775 276.716C278.191 279.856 353.607 283.008 363.536 280.907C364.367 280.928 365.173 280.618 365.776 280.046C366.38 279.473 366.731 278.685 366.754 277.854C367.757 271.999 368.566 266.135 369.107 260.225C369.393 257.18 369.602 254.134 369.814 251.081L372.069 218.687C372.321 216.408 372.289 214.106 371.975 211.835C371.387 208.752 369.562 203.524 366.413 202.138Z" fill="#FBBEBE"/>
<path d="M354.084 151.655C353.095 150.977 352.624 149.855 351.431 149.47C348.198 148.434 341.541 151.016 338.198 151.62C336.999 151.782 335.826 152.093 334.705 152.545C331.997 153.769 330.279 156.516 329.25 159.311C324.101 173.275 332.5 189.059 329.132 203.556C328.371 206.821 327.028 209.921 326.094 213.147C339.328 213.611 352.216 207.472 365.41 208.516C368.166 208.728 371.266 209.525 372.561 211.962C372.636 211.906 372.709 211.848 372.781 211.788C373.216 211.421 373.574 210.972 373.835 210.467C374.097 209.962 374.256 209.41 374.304 208.843C374.352 208.276 374.288 207.705 374.116 207.162C373.943 206.62 373.666 206.117 373.299 205.682C372.878 205.301 372.492 204.884 372.145 204.434C371.793 203.759 371.618 203.006 371.635 202.244C370.66 186.632 366.912 171.317 360.568 157.018C360.183 155.98 359.59 155.032 358.826 154.231C357.58 152.968 355.587 152.615 354.084 151.655Z" fill="#09BFF6"/>
<path d="M259.655 282.454C266.153 282.454 271.42 277.186 271.42 270.689C271.42 264.191 266.153 258.923 259.655 258.923C253.157 258.923 247.889 264.191 247.889 270.689C247.889 277.186 253.157 282.454 259.655 282.454Z" fill="#FBBEBE"/>
<path d="M285.707 282.454C292.205 282.454 297.472 277.186 297.472 270.689C297.472 264.191 292.205 258.923 285.707 258.923C279.209 258.923 273.941 264.191 273.941 270.689C273.941 277.186 279.209 282.454 285.707 282.454Z" fill="#FBBEBE"/>
<path d="M358.332 297.2H196.693C194.806 297.198 192.996 296.448 191.662 295.113C190.328 293.779 189.577 291.97 189.575 290.082V192.021C189.577 190.134 190.328 188.324 191.662 186.99C192.996 185.656 194.806 184.905 196.693 184.903H358.332C360.219 184.905 362.028 185.656 363.362 186.99C364.697 188.324 365.448 190.134 365.45 192.021V290.082C365.448 291.97 364.697 293.779 363.362 295.113C362.028 296.448 360.219 297.198 358.332 297.2Z" fill="#3F3D56"/>
<path d="M277.12 245.761C279.721 245.761 281.83 243.653 281.83 241.052C281.83 238.451 279.721 236.342 277.12 236.342C274.519 236.342 272.411 238.451 272.411 241.052C272.411 243.653 274.519 245.761 277.12 245.761Z" fill="white"/>
<path d="M542 277.421H0V294.076H32.0587V297.948H509.953V294.076H542V277.421Z" fill="#666762"/>
<path d="M232.48 77.4475C225.476 77.4475 219.797 71.3081 219.797 63.7348V56.8784C219.797 49.3051 225.476 43.1658 232.48 43.1658V77.4475H232.48Z" fill="#09BFF6"/>
<path d="M313.428 43.1658C320.432 43.1658 326.11 49.3051 326.11 56.8784V63.7348C326.11 71.3081 320.432 77.4475 313.428 77.4475V43.1658Z" fill="#09BFF6"/>
<path d="M320.074 57.9559H318.061C318.061 30.3633 297.3 7.91502 271.78 7.91502C246.261 7.91502 225.499 30.3633 225.499 57.9559H223.487C223.487 29.1636 245.151 5.73935 271.78 5.73935C298.409 5.73936 320.074 29.1636 320.074 57.9559Z" fill="#09BFF6"/>
</g>
<defs>
<clipPath id="clip0_83_45">
<rect width="542" height="297.948" fill="white"/>
</clipPath>
</defs>
</svg>
